G04 ================== begin FILE IDENTIFICATION RECORD ==================*
G04 Layout Name:  D:/thanh/baocao/layout/main2.brd*
G04 Film Name:    ar_SILK_BOTTOM*
G04 File Format:  Gerber RS274X*
G04 File Origin:  Cadence Allegro 16.6-P004*
G04 Origin Date:  Fri Apr 07 10:43:20 2017*
G04 *
G04 Layer:  REF DES/SILKSCREEN_BOTTOM*
G04 Layer:  PACKAGE GEOMETRY/SILKSCREEN_BOTTOM*
G04 Layer:  MANUFACTURING/AUTOSILK_BOTTOM*
G04 Layer:  BOARD GEOMETRY/OUTLINE*
G04 *
G04 Offset:    (0.0 0.0)*
G04 Mirror:    No*
G04 Mode:      Positive*
G04 Rotation:  0*
G04 FullContactRelief:  No*
G04 UndefLineWidth:     6.0*
G04 ================== end FILE IDENTIFICATION RECORD ====================*
%FSLAX25Y25*MOIN*%
%IR0*IPPOS*OFA0.00000B0.00000*MIA0B0*SFA1.00000B1.00000*%
%ADD10C,.006*%
G75*
%LPD*%
G75*
G54D10*
G01X90000Y-10000D02*
G03I-90000J0D01*
G01X-51230Y-41000D02*
Y-38500D01*
X-50570D01*
X-50350Y-38630D01*
X-50220Y-38790D01*
X-50170Y-39130D01*
X-50220Y-39460D01*
X-50380Y-39670D01*
X-50570Y-39790D01*
X-51230D01*
G01X-50570D02*
X-50170Y-41000D01*
G01X-49090Y-40630D02*
X-48930Y-40830D01*
X-48740Y-40960D01*
X-48500Y-41000D01*
X-48260Y-40920D01*
X-48070Y-40750D01*
X-47940Y-40460D01*
X-47910Y-40130D01*
X-47970Y-39790D01*
X-48100Y-39580D01*
X-48290Y-39420D01*
X-48470Y-39380D01*
X-48660Y-39420D01*
X-48900Y-39580D01*
X-48820Y-38500D01*
X-48100D01*
G01X-52600Y-56000D02*
Y-41800D01*
X-46400D01*
Y-56000D01*
X-52600D01*
G01X-12770Y-80400D02*
Y-82900D01*
X-13430D01*
X-13650Y-82770D01*
X-13780Y-82610D01*
X-13830Y-82270D01*
X-13780Y-81940D01*
X-13620Y-81730D01*
X-13430Y-81610D01*
X-12770D01*
G01X-13430D02*
X-13830Y-80400D01*
G01X-15500D02*
Y-82900D01*
X-15180Y-82400D01*
G01Y-80400D02*
X-15820D01*
G01X-26230Y-90800D02*
Y-88300D01*
X-25570D01*
X-25350Y-88430D01*
X-25220Y-88590D01*
X-25170Y-88930D01*
X-25220Y-89260D01*
X-25380Y-89470D01*
X-25570Y-89590D01*
X-26230D01*
G01X-25570D02*
X-25170Y-90800D01*
G01X-24010Y-88720D02*
X-23850Y-88470D01*
X-23660Y-88340D01*
X-23450Y-88300D01*
X-23180Y-88380D01*
X-22990Y-88590D01*
X-22940Y-88840D01*
X-22970Y-89090D01*
X-23070Y-89300D01*
X-23610Y-89720D01*
X-23850Y-90010D01*
X-24010Y-90430D01*
X-24060Y-90800D01*
X-22940D01*
G01X-22600Y-92600D02*
Y-78400D01*
X-16400D01*
Y-92600D01*
X-22600D01*
G01X-16750Y-63200D02*
Y-61530D01*
G01Y-61950D02*
X-16650Y-61740D01*
X-16490Y-61580D01*
X-16270Y-61530D01*
X-16090Y-61580D01*
X-15930Y-61740D01*
X-15850Y-62030D01*
Y-63200D01*
G01X-14630D02*
Y-60700D01*
X-13970D01*
X-13750Y-60830D01*
X-13620Y-60990D01*
X-13570Y-61330D01*
X-13620Y-61660D01*
X-13780Y-61870D01*
X-13970Y-61990D01*
X-14630D01*
G01X-13970D02*
X-13570Y-63200D01*
G01X-12300Y-62080D02*
X-11450D01*
X-11530Y-61780D01*
X-11660Y-61620D01*
X-11850Y-61530D01*
X-12030Y-61580D01*
X-12190Y-61700D01*
X-12300Y-61990D01*
X-12350Y-62240D01*
Y-62490D01*
X-12300Y-62740D01*
X-12170Y-62990D01*
X-12010Y-63160D01*
X-11820Y-63200D01*
X-11630Y-63120D01*
X-11450Y-62870D01*
G01X-9220Y-63200D02*
Y-61530D01*
G01Y-61820D02*
X-9330Y-61660D01*
X-9490Y-61580D01*
X-9670Y-61530D01*
X-9860Y-61620D01*
X-10020Y-61780D01*
X-10130Y-62030D01*
X-10180Y-62370D01*
X-10130Y-62700D01*
X-10020Y-62950D01*
X-9860Y-63120D01*
X-9670Y-63200D01*
X-9490Y-63160D01*
X-9330Y-63030D01*
X-9220Y-62870D01*
G01X-7020Y-60700D02*
Y-63200D01*
G01Y-62830D02*
X-7130Y-63030D01*
X-7290Y-63160D01*
X-7470Y-63200D01*
X-7690Y-63120D01*
X-7850Y-62910D01*
X-7950Y-62660D01*
X-7980Y-62370D01*
X-7950Y-62080D01*
X-7850Y-61820D01*
X-7690Y-61620D01*
X-7470Y-61530D01*
X-7290Y-61580D01*
X-7150Y-61660D01*
X-7020Y-61820D01*
G01X-5860Y-63950D02*
X-5700Y-64030D01*
X-5490Y-63950D01*
X-5350Y-63780D01*
X-5250Y-63570D01*
X-5090Y-62910D01*
X-4740Y-61530D01*
G01X-5590D02*
X-5090Y-62910D01*
G01X-27270Y-26200D02*
Y-28700D01*
X-27930D01*
X-28150Y-28570D01*
X-28280Y-28410D01*
X-28330Y-28070D01*
X-28280Y-27740D01*
X-28120Y-27530D01*
X-27930Y-27410D01*
X-27270D01*
G01X-27930D02*
X-28330Y-26200D01*
G01X-30000D02*
X-30190Y-26240D01*
X-30400Y-26370D01*
X-30530Y-26570D01*
X-30590Y-26870D01*
X-30530Y-27160D01*
X-30370Y-27410D01*
X-30130Y-27530D01*
X-29870D01*
X-29710Y-27620D01*
X-29570Y-27820D01*
X-29520Y-28120D01*
X-29600Y-28410D01*
X-29790Y-28620D01*
X-30000Y-28700D01*
X-30210Y-28620D01*
X-30400Y-28410D01*
X-30480Y-28120D01*
X-30430Y-27820D01*
X-30290Y-27620D01*
X-30130Y-27530D01*
X-29870D01*
X-29630Y-27410D01*
X-29470Y-27160D01*
X-29410Y-26870D01*
X-29470Y-26570D01*
X-29600Y-26370D01*
X-29810Y-26240D01*
X-30000Y-26200D01*
G01X-25900Y-11400D02*
Y-25600D01*
X-32100D01*
Y-11400D01*
X-25900D01*
G01X-27600Y6270D02*
X-30100D01*
Y6930D01*
X-29970Y7150D01*
X-29810Y7280D01*
X-29470Y7330D01*
X-29140Y7280D01*
X-28930Y7120D01*
X-28810Y6930D01*
Y6270D01*
G01Y6930D02*
X-27600Y7330D01*
G01X-27890Y8550D02*
X-27680Y8730D01*
X-27600Y8950D01*
X-27680Y9160D01*
X-27930Y9350D01*
X-28310Y9480D01*
X-28680Y9530D01*
X-29140D01*
X-29520Y9480D01*
X-29850Y9350D01*
X-30020Y9190D01*
X-30100Y9000D01*
X-30020Y8790D01*
X-29850Y8630D01*
X-29600Y8520D01*
X-29270Y8470D01*
X-28980Y8520D01*
X-28680Y8650D01*
X-28520Y8810D01*
X-28470Y9000D01*
X-28560Y9210D01*
X-28770Y9370D01*
X-29140Y9530D01*
G01X-32100Y-8600D02*
Y5600D01*
X-25900D01*
Y-8600D01*
X-32100D01*
G01X-8400Y-6600D02*
X-22600D01*
Y-400D01*
X-8400D01*
Y-6600D01*
G01X-5900Y-78400D02*
Y-92600D01*
X-12100D01*
Y-78400D01*
X-5900D01*
G01X-750Y-63500D02*
Y-61830D01*
G01Y-62250D02*
X-650Y-62040D01*
X-490Y-61880D01*
X-270Y-61830D01*
X-90Y-61880D01*
X70Y-62040D01*
X150Y-62330D01*
Y-63500D01*
G01X1370Y-61000D02*
Y-63500D01*
X2430D01*
G01X4100Y-61830D02*
Y-63500D01*
G01Y-61170D02*
X4050Y-61130D01*
Y-61040D01*
X4100Y-61000D01*
X4150Y-61040D01*
Y-61130D01*
X4100Y-61170D01*
G01X5850Y-63500D02*
Y-61830D01*
G01Y-62250D02*
X5950Y-62040D01*
X6110Y-61880D01*
X6330Y-61830D01*
X6510Y-61880D01*
X6670Y-62040D01*
X6750Y-62330D01*
Y-63500D01*
G01X8050D02*
Y-61000D01*
G01X8900Y-61830D02*
X8050Y-62790D01*
G01X8390Y-62420D02*
X8950Y-63500D01*
G01X6870Y-48980D02*
Y-46480D01*
X7410D01*
X7620Y-46610D01*
X7780Y-46770D01*
X7910Y-47020D01*
X8020Y-47310D01*
X8050Y-47730D01*
X8020Y-48150D01*
X7910Y-48440D01*
X7780Y-48690D01*
X7620Y-48860D01*
X7410Y-48980D01*
X6870D01*
G01X9660D02*
Y-46480D01*
X9340Y-46980D01*
G01Y-48980D02*
X9980D01*
G01X6200Y-48700D02*
Y-56300D01*
X800D01*
Y-48700D01*
X6200D01*
G01X-6190Y-48500D02*
Y-46000D01*
X-5650D01*
X-5440Y-46130D01*
X-5280Y-46290D01*
X-5150Y-46540D01*
X-5040Y-46830D01*
X-5010Y-47250D01*
X-5040Y-47670D01*
X-5150Y-47960D01*
X-5280Y-48210D01*
X-5440Y-48380D01*
X-5650Y-48500D01*
X-6190D01*
G01X-3910Y-46420D02*
X-3750Y-46170D01*
X-3560Y-46040D01*
X-3350Y-46000D01*
X-3080Y-46080D01*
X-2890Y-46290D01*
X-2840Y-46540D01*
X-2870Y-46790D01*
X-2970Y-47000D01*
X-3510Y-47420D01*
X-3750Y-47710D01*
X-3910Y-48130D01*
X-3960Y-48500D01*
X-2840D01*
G01X-6800Y-48700D02*
Y-56300D01*
X-12200D01*
Y-48700D01*
X-6800D01*
G01X9570Y8900D02*
Y11400D01*
X10230D01*
X10450Y11270D01*
X10580Y11110D01*
X10630Y10770D01*
X10580Y10440D01*
X10420Y10230D01*
X10230Y10110D01*
X9570D01*
G01X10230D02*
X10630Y8900D01*
G01X11710Y9400D02*
X11870Y9110D01*
X12090Y8940D01*
X12330Y8900D01*
X12540Y8940D01*
X12750Y9150D01*
X12890Y9400D01*
X12910Y9650D01*
X12860Y9940D01*
X12670Y10150D01*
X12490Y10230D01*
X12250D01*
G01X12490D02*
X12650Y10360D01*
X12780Y10570D01*
X12830Y10820D01*
X12780Y11070D01*
X12650Y11270D01*
X12410Y11400D01*
X12170Y11360D01*
X11930Y11190D01*
G01X8200Y-6500D02*
Y7700D01*
X14400D01*
Y-6500D01*
X8200D01*
G01X-7530Y-4600D02*
Y-2100D01*
X-6870D01*
X-6650Y-2230D01*
X-6520Y-2390D01*
X-6470Y-2730D01*
X-6520Y-3060D01*
X-6680Y-3270D01*
X-6870Y-3390D01*
X-7530D01*
G01X-6870D02*
X-6470Y-4600D01*
G01X-4800D02*
Y-2100D01*
X-5120Y-2600D01*
G01Y-4600D02*
X-4480D01*
G01X-2600Y-2100D02*
X-2810Y-2180D01*
X-2970Y-2390D01*
X-3080Y-2640D01*
X-3160Y-2980D01*
X-3190Y-3350D01*
X-3160Y-3730D01*
X-3080Y-4060D01*
X-2970Y-4310D01*
X-2810Y-4520D01*
X-2600Y-4600D01*
X-2390Y-4520D01*
X-2230Y-4310D01*
X-2120Y-4060D01*
X-2040Y-3730D01*
X-2010Y-3350D01*
X-2040Y-2980D01*
X-2120Y-2640D01*
X-2230Y-2390D01*
X-2390Y-2180D01*
X-2600Y-2100D01*
G01X27700Y20100D02*
X2500D01*
Y42900D01*
X27700D01*
Y20100D01*
G01X21970Y8700D02*
Y11200D01*
X22630D01*
X22850Y11070D01*
X22980Y10910D01*
X23030Y10570D01*
X22980Y10240D01*
X22820Y10030D01*
X22630Y9910D01*
X21970D01*
G01X22630D02*
X23030Y8700D01*
G01X25020D02*
Y11200D01*
X24030Y9410D01*
X25370D01*
G01X26600Y7800D02*
Y-6400D01*
X20400D01*
Y7800D01*
X26600D01*
G01X29540Y45630D02*
X29750Y45420D01*
X29990Y45300D01*
X30210D01*
X30420Y45420D01*
X30580Y45630D01*
X30660Y45930D01*
X30610Y46220D01*
X30470Y46470D01*
X30230Y46630D01*
X29910Y46720D01*
X29730Y46880D01*
X29650Y47170D01*
X29700Y47470D01*
X29830Y47670D01*
X30020Y47800D01*
X30210D01*
X30390Y47720D01*
X30550Y47510D01*
G01X32300Y45300D02*
Y47800D01*
X31980Y47300D01*
G01Y45300D02*
X32620D01*
G01X50970Y-16500D02*
Y-14000D01*
X51630D01*
X51850Y-14130D01*
X51980Y-14290D01*
X52030Y-14630D01*
X51980Y-14960D01*
X51820Y-15170D01*
X51630Y-15290D01*
X50970D01*
G01X51630D02*
X52030Y-16500D01*
G01X53190Y-15460D02*
X53380Y-15170D01*
X53540Y-15000D01*
X53750Y-14920D01*
X53940Y-15000D01*
X54070Y-15170D01*
X54180Y-15420D01*
X54210Y-15710D01*
X54180Y-15960D01*
X54070Y-16210D01*
X53910Y-16420D01*
X53730Y-16500D01*
X53510Y-16420D01*
X53330Y-16170D01*
X53220Y-15790D01*
X53190Y-15380D01*
X53250Y-14830D01*
X53330Y-14540D01*
X53460Y-14250D01*
X53650Y-14040D01*
X53830Y-14000D01*
X54020Y-14080D01*
X54150Y-14290D01*
G01X55600Y-13500D02*
X41400D01*
Y-7300D01*
X55600D01*
Y-13500D01*
G01X42890Y36990D02*
X42730Y37120D01*
X42540Y37200D01*
X42330D01*
X42090Y37070D01*
X41900Y36870D01*
X41770Y36620D01*
X41660Y36200D01*
X41630Y35820D01*
X41690Y35450D01*
X41770Y35200D01*
X41930Y34950D01*
X42110Y34780D01*
X42300Y34700D01*
X42490D01*
X42670Y34780D01*
X42830Y34910D01*
X42970Y35070D01*
G01X43910D02*
X44070Y34870D01*
X44260Y34740D01*
X44500Y34700D01*
X44740Y34780D01*
X44930Y34950D01*
X45060Y35240D01*
X45090Y35570D01*
X45030Y35910D01*
X44900Y36120D01*
X44710Y36280D01*
X44530Y36320D01*
X44340Y36280D01*
X44100Y36120D01*
X44180Y37200D01*
X44900D01*
G01X46900Y33500D02*
Y19700D01*
X40900D01*
Y33500D01*
X46900D01*
M02*
