G04 ================== begin FILE IDENTIFICATION RECORD ==================*
G04 Layout Name:  C:/Users/NhatThanh/Desktop/CC3200board/mainBoard2.brd*
G04 Film Name:    ART_SILK_BOTTOM*
G04 File Format:  Gerber RS274X*
G04 File Origin:  Cadence Allegro 16.6-P004*
G04 Origin Date:  Thu May 25 13:32:20 2017*
G04 *
G04 Layer:  REF DES/SILKSCREEN_BOTTOM*
G04 Layer:  PACKAGE GEOMETRY/SILKSCREEN_BOTTOM*
G04 Layer:  MANUFACTURING/AUTOSILK_BOTTOM*
G04 Layer:  BOARD GEOMETRY/OUTLINE*
G04 *
G04 Offset:    (0.0 0.0)*
G04 Mirror:    No*
G04 Mode:      Positive*
G04 Rotation:  0*
G04 FullContactRelief:  No*
G04 UndefLineWidth:     6.0*
G04 ================== end FILE IDENTIFICATION RECORD ====================*
%FSLAX25Y25*MOIN*%
%IR0*IPPOS*OFA0.00000B0.00000*MIA0B0*SFA1.00000B1.00000*%
%ADD10C,.006*%
G75*
%LPD*%
G75*
G54D10*
G01X100000Y0D02*
G03I-100000J0D01*
G01X9500Y90500D02*
G03I-7000J0D01*
G01X4230Y100500D02*
X4100Y100250D01*
X3940Y100080D01*
X3750Y100000D01*
X3540Y100080D01*
X3380Y100250D01*
X3220Y100500D01*
X3170Y100830D01*
Y102500D01*
G01X1500Y100000D02*
X1310Y100040D01*
X1100Y100170D01*
X970Y100370D01*
X910Y100670D01*
X970Y100960D01*
X1130Y101210D01*
X1370Y101330D01*
X1630D01*
X1790Y101420D01*
X1930Y101620D01*
X1980Y101920D01*
X1900Y102210D01*
X1710Y102420D01*
X1500Y102500D01*
X1290Y102420D01*
X1100Y102210D01*
X1020Y101920D01*
X1070Y101620D01*
X1210Y101420D01*
X1370Y101330D01*
X1630D01*
X1870Y101210D01*
X2030Y100960D01*
X2090Y100670D01*
X2030Y100370D01*
X1900Y100170D01*
X1690Y100040D01*
X1500Y100000D01*
M02*
