G04 ================== begin FILE IDENTIFICATION RECORD ==================*
G04 Layout Name:  C:/Users/NhatThanh/Desktop/CC3200board/mainBoard2.brd*
G04 Film Name:    SILK_TOP*
G04 File Format:  Gerber RS274X*
G04 File Origin:  Cadence Allegro 16.6-P004*
G04 Origin Date:  Thu May 25 13:29:12 2017*
G04 *
G04 Layer:  REF DES/SILKSCREEN_TOP*
G04 Layer:  PACKAGE GEOMETRY/SILKSCREEN_TOP*
G04 Layer:  MANUFACTURING/AUTOSILK_TOP*
G04 Layer:  BOARD GEOMETRY/OUTLINE*
G04 Layer:  BOARD GEOMETRY/SILKSCREEN_TOP*
G04 *
G04 Offset:    (0.0 0.0)*
G04 Mirror:    No*
G04 Mode:      Positive*
G04 Rotation:  0*
G04 FullContactRelief:  No*
G04 UndefLineWidth:     6.0*
G04 ================== end FILE IDENTIFICATION RECORD ====================*
%FSLAX25Y25*MOIN*%
%IR0*IPPOS*OFA0.00000B0.00000*MIA0B0*SFA1.00000B1.00000*%
%ADD10C,.006*%
%ADD11C,.008*%
%ADD12C,.0039*%
%ADD13C,.01*%
G75*
%LPD*%
G75*
G54D10*
G01X-20640Y-70000D02*
X-15960D01*
G01X-20640Y-65800D02*
X-15960D01*
G01X-22000Y-49780D02*
Y-53820D01*
G01X-11760Y-47990D02*
X-15760D01*
Y-50530D01*
G01Y-54360D02*
X-11760D01*
X-12560Y-53600D01*
G01X-15760D02*
Y-55120D01*
G01X-17800Y-53820D02*
Y-49780D01*
G01X100000Y0D02*
G03I-100000J0D01*
G01X-66000Y-54500D02*
G03I-7000J0D01*
G01X-74730Y-44500D02*
X-74600Y-44750D01*
X-74440Y-44920D01*
X-74250Y-45000D01*
X-74040Y-44920D01*
X-73880Y-44750D01*
X-73720Y-44500D01*
X-73670Y-44170D01*
Y-42500D01*
G01X-72050Y-45000D02*
X-72000Y-44460D01*
X-71920Y-44000D01*
X-71810Y-43580D01*
X-71680Y-43130D01*
X-71470Y-42500D01*
X-72530D01*
G01X-86600Y-26100D02*
Y-19900D01*
X-72400D01*
Y-26100D01*
X-86600D01*
G01X-75470Y-14640D02*
X-75680Y-14850D01*
X-75800Y-15090D01*
Y-15310D01*
X-75680Y-15520D01*
X-75470Y-15680D01*
X-75170Y-15760D01*
X-74880Y-15710D01*
X-74630Y-15570D01*
X-74470Y-15330D01*
X-74380Y-15010D01*
X-74220Y-14830D01*
X-73930Y-14750D01*
X-73630Y-14800D01*
X-73430Y-14930D01*
X-73300Y-15120D01*
Y-15310D01*
X-73380Y-15490D01*
X-73590Y-15650D01*
G01X-75800Y-17400D02*
X-73300D01*
X-73800Y-17080D01*
G01X-75800D02*
Y-17720D01*
G01X-91400Y19600D02*
X-68600D01*
Y-5600D01*
X-91400D01*
Y19600D01*
G01X-71330Y-23500D02*
Y-21000D01*
X-70670D01*
X-70450Y-21130D01*
X-70320Y-21290D01*
X-70270Y-21630D01*
X-70320Y-21960D01*
X-70480Y-22170D01*
X-70670Y-22290D01*
X-71330D01*
G01X-70670D02*
X-70270Y-23500D01*
G01X-68280D02*
Y-21000D01*
X-69270Y-22790D01*
X-67930D01*
G01X-62000Y-5000D02*
Y35000D01*
X-52000D01*
Y-5000D01*
X-62000D01*
G01X-48130Y28300D02*
X-48000Y28050D01*
X-47840Y27880D01*
X-47650Y27800D01*
X-47440Y27880D01*
X-47280Y28050D01*
X-47120Y28300D01*
X-47070Y28630D01*
Y30300D01*
G01X-45990Y28300D02*
X-45830Y28010D01*
X-45610Y27840D01*
X-45370Y27800D01*
X-45160Y27840D01*
X-44950Y28050D01*
X-44810Y28300D01*
X-44790Y28550D01*
X-44840Y28840D01*
X-45030Y29050D01*
X-45210Y29130D01*
X-45450D01*
G01X-45210D02*
X-45050Y29260D01*
X-44920Y29470D01*
X-44870Y29720D01*
X-44920Y29970D01*
X-45050Y30170D01*
X-45290Y30300D01*
X-45530Y30260D01*
X-45770Y30090D01*
G01X-62000Y42330D02*
X-59500D01*
Y41670D01*
X-59630Y41450D01*
X-59790Y41320D01*
X-60130Y41270D01*
X-60460Y41320D01*
X-60670Y41480D01*
X-60790Y41670D01*
Y42330D01*
G01Y41670D02*
X-62000Y41270D01*
G01X-61500Y40190D02*
X-61790Y40030D01*
X-61960Y39810D01*
X-62000Y39570D01*
X-61960Y39360D01*
X-61750Y39150D01*
X-61500Y39010D01*
X-61250Y38990D01*
X-60960Y39040D01*
X-60750Y39230D01*
X-60670Y39410D01*
Y39650D01*
G01Y39410D02*
X-60540Y39250D01*
X-60330Y39120D01*
X-60080Y39070D01*
X-59830Y39120D01*
X-59630Y39250D01*
X-59500Y39490D01*
X-59540Y39730D01*
X-59710Y39970D01*
G01X-64600Y57600D02*
X-58400D01*
Y43400D01*
X-64600D01*
Y57600D01*
G01X-31500Y81170D02*
X-34000D01*
Y81830D01*
X-33870Y82050D01*
X-33710Y82180D01*
X-33370Y82230D01*
X-33040Y82180D01*
X-32830Y82020D01*
X-32710Y81830D01*
Y81170D01*
G01Y81830D02*
X-31500Y82230D01*
G01Y83850D02*
X-32040Y83900D01*
X-32500Y83980D01*
X-32920Y84090D01*
X-33370Y84220D01*
X-34000Y84430D01*
Y83370D01*
G01X-28900Y65900D02*
X-35100D01*
Y80100D01*
X-28900D01*
Y65900D01*
G01X-9860Y-77430D02*
Y-79660D01*
X-9730Y-80130D01*
X-9460Y-80440D01*
X-9130Y-80540D01*
X-8790Y-80440D01*
X-8520Y-80130D01*
X-8390Y-79660D01*
Y-77430D01*
G01X-7160Y-77950D02*
X-6960Y-77640D01*
X-6730Y-77480D01*
X-6460Y-77430D01*
X-6120Y-77530D01*
X-5890Y-77790D01*
X-5820Y-78100D01*
X-5850Y-78410D01*
X-5990Y-78670D01*
X-6660Y-79190D01*
X-6960Y-79560D01*
X-7160Y-80070D01*
X-7230Y-80540D01*
X-5820D01*
G01X-17700Y-91480D02*
Y-89480D01*
X-17940Y-89880D01*
G01Y-91480D02*
X-17460D01*
G01X4850Y-89030D02*
X4970Y-88830D01*
X5110Y-88730D01*
X5270Y-88700D01*
X5470Y-88770D01*
X5610Y-88930D01*
X5650Y-89130D01*
X5630Y-89330D01*
X5550Y-89500D01*
X5150Y-89830D01*
X4970Y-90070D01*
X4850Y-90400D01*
X4810Y-90700D01*
X5650D01*
G01X6190Y-54290D02*
X6320Y-54130D01*
X6400Y-53940D01*
Y-53730D01*
X6270Y-53490D01*
X6070Y-53300D01*
X5820Y-53170D01*
X5400Y-53060D01*
X5020Y-53030D01*
X4650Y-53090D01*
X4400Y-53170D01*
X4150Y-53330D01*
X3980Y-53510D01*
X3900Y-53700D01*
Y-53890D01*
X3980Y-54070D01*
X4110Y-54230D01*
X4270Y-54370D01*
G01X4940Y-55390D02*
X5230Y-55580D01*
X5400Y-55740D01*
X5480Y-55950D01*
X5400Y-56140D01*
X5230Y-56270D01*
X4980Y-56380D01*
X4690Y-56410D01*
X4440Y-56380D01*
X4190Y-56270D01*
X3980Y-56110D01*
X3900Y-55930D01*
X3980Y-55710D01*
X4230Y-55530D01*
X4610Y-55420D01*
X5020Y-55390D01*
X5570Y-55450D01*
X5860Y-55530D01*
X6150Y-55660D01*
X6360Y-55850D01*
X6400Y-56030D01*
X6320Y-56220D01*
X6110Y-56350D01*
G01X2000Y-38100D02*
X8000D01*
Y-51900D01*
X2000D01*
Y-38100D01*
G01X-13000Y81170D02*
X-15500D01*
Y81830D01*
X-15370Y82050D01*
X-15210Y82180D01*
X-14870Y82230D01*
X-14540Y82180D01*
X-14330Y82020D01*
X-14210Y81830D01*
Y81170D01*
G01Y81830D02*
X-13000Y82230D01*
G01Y83900D02*
X-13040Y84090D01*
X-13170Y84300D01*
X-13370Y84430D01*
X-13670Y84490D01*
X-13960Y84430D01*
X-14210Y84270D01*
X-14330Y84030D01*
Y83770D01*
X-14420Y83610D01*
X-14620Y83470D01*
X-14920Y83420D01*
X-15210Y83500D01*
X-15420Y83690D01*
X-15500Y83900D01*
X-15420Y84110D01*
X-15210Y84300D01*
X-14920Y84380D01*
X-14620Y84330D01*
X-14420Y84190D01*
X-14330Y84030D01*
Y83770D01*
X-14210Y83530D01*
X-13960Y83370D01*
X-13670Y83310D01*
X-13370Y83370D01*
X-13170Y83500D01*
X-13040Y83710D01*
X-13000Y83900D01*
G01X-10400Y65900D02*
X-16600D01*
Y80100D01*
X-10400D01*
Y65900D01*
G01X-1500Y81170D02*
X-4000D01*
Y81830D01*
X-3870Y82050D01*
X-3710Y82180D01*
X-3370Y82230D01*
X-3040Y82180D01*
X-2830Y82020D01*
X-2710Y81830D01*
Y81170D01*
G01Y81830D02*
X-1500Y82230D01*
G01X-1790Y83450D02*
X-1580Y83630D01*
X-1500Y83850D01*
X-1580Y84060D01*
X-1830Y84250D01*
X-2210Y84380D01*
X-2580Y84430D01*
X-3040D01*
X-3420Y84380D01*
X-3750Y84250D01*
X-3920Y84090D01*
X-4000Y83900D01*
X-3920Y83690D01*
X-3750Y83530D01*
X-3500Y83420D01*
X-3170Y83370D01*
X-2880Y83420D01*
X-2580Y83550D01*
X-2420Y83710D01*
X-2370Y83900D01*
X-2460Y84110D01*
X-2670Y84270D01*
X-3040Y84430D01*
G01X1100Y65900D02*
X-5100D01*
Y80100D01*
X1100D01*
Y65900D01*
G01X12600D02*
X6400D01*
Y80100D01*
X12600D01*
Y65900D01*
G01X16190Y-54290D02*
X16320Y-54130D01*
X16400Y-53940D01*
Y-53730D01*
X16270Y-53490D01*
X16070Y-53300D01*
X15820Y-53170D01*
X15400Y-53060D01*
X15020Y-53030D01*
X14650Y-53090D01*
X14400Y-53170D01*
X14150Y-53330D01*
X13980Y-53510D01*
X13900Y-53700D01*
Y-53890D01*
X13980Y-54070D01*
X14110Y-54230D01*
X14270Y-54370D01*
G01X15980Y-55390D02*
X16230Y-55550D01*
X16360Y-55740D01*
X16400Y-55950D01*
X16320Y-56220D01*
X16110Y-56410D01*
X15860Y-56460D01*
X15610Y-56430D01*
X15400Y-56330D01*
X14980Y-55790D01*
X14690Y-55550D01*
X14270Y-55390D01*
X13900Y-55340D01*
Y-56460D01*
G01X12000Y-38100D02*
X18000D01*
Y-51900D01*
X12000D01*
Y-38100D01*
G01X26190Y-54290D02*
X26320Y-54130D01*
X26400Y-53940D01*
Y-53730D01*
X26270Y-53490D01*
X26070Y-53300D01*
X25820Y-53170D01*
X25400Y-53060D01*
X25020Y-53030D01*
X24650Y-53090D01*
X24400Y-53170D01*
X24150Y-53330D01*
X23980Y-53510D01*
X23900Y-53700D01*
Y-53890D01*
X23980Y-54070D01*
X24110Y-54230D01*
X24270Y-54370D01*
G01X24400Y-55310D02*
X24110Y-55470D01*
X23940Y-55690D01*
X23900Y-55930D01*
X23940Y-56140D01*
X24150Y-56350D01*
X24400Y-56490D01*
X24650Y-56510D01*
X24940Y-56460D01*
X25150Y-56270D01*
X25230Y-56090D01*
Y-55850D01*
G01Y-56090D02*
X25360Y-56250D01*
X25570Y-56380D01*
X25820Y-56430D01*
X26070Y-56380D01*
X26270Y-56250D01*
X26400Y-56010D01*
X26360Y-55770D01*
X26190Y-55530D01*
G01X22000Y-38100D02*
X28000D01*
Y-51900D01*
X22000D01*
Y-38100D01*
G01X19310Y82290D02*
X19180Y82130D01*
X19100Y81940D01*
Y81730D01*
X19230Y81490D01*
X19430Y81300D01*
X19680Y81170D01*
X20100Y81060D01*
X20480Y81030D01*
X20850Y81090D01*
X21100Y81170D01*
X21350Y81330D01*
X21520Y81510D01*
X21600Y81700D01*
Y81890D01*
X21520Y82070D01*
X21390Y82230D01*
X21230Y82370D01*
G01Y83310D02*
X21430Y83470D01*
X21560Y83660D01*
X21600Y83900D01*
X21520Y84140D01*
X21350Y84330D01*
X21060Y84460D01*
X20730Y84490D01*
X20390Y84430D01*
X20180Y84300D01*
X20020Y84110D01*
X19980Y83930D01*
X20020Y83740D01*
X20180Y83500D01*
X19100Y83580D01*
Y84300D01*
G01X23500Y66100D02*
X17500D01*
Y79900D01*
X23500D01*
Y66100D01*
G01X31300Y70100D02*
Y86900D01*
X44000D01*
Y70100D01*
X31300D01*
G01X10000Y83270D02*
X7500D01*
Y83930D01*
X7630Y84150D01*
X7790Y84280D01*
X8130Y84330D01*
X8460Y84280D01*
X8670Y84120D01*
X8790Y83930D01*
Y83270D01*
G01Y83930D02*
X10000Y84330D01*
G01Y86000D02*
X7500D01*
X8000Y85680D01*
G01X10000D02*
Y86320D01*
G01X7500Y88200D02*
X7580Y87990D01*
X7790Y87830D01*
X8040Y87720D01*
X8380Y87640D01*
X8750Y87610D01*
X9130Y87640D01*
X9460Y87720D01*
X9710Y87830D01*
X9920Y87990D01*
X10000Y88200D01*
X9920Y88410D01*
X9710Y88570D01*
X9460Y88680D01*
X9130Y88760D01*
X8750Y88790D01*
X8380Y88760D01*
X8040Y88680D01*
X7790Y88570D01*
X7580Y88410D01*
X7500Y88200D01*
G01X61090Y-49910D02*
X60930Y-49780D01*
X60740Y-49700D01*
X60530D01*
X60290Y-49830D01*
X60100Y-50030D01*
X59970Y-50280D01*
X59860Y-50700D01*
X59830Y-51080D01*
X59890Y-51450D01*
X59970Y-51700D01*
X60130Y-51950D01*
X60310Y-52120D01*
X60500Y-52200D01*
X60690D01*
X60870Y-52120D01*
X61030Y-51990D01*
X61170Y-51830D01*
G01X62700Y-52200D02*
Y-49700D01*
X62380Y-50200D01*
G01Y-52200D02*
X63020D01*
G01X34100Y-45600D02*
X57900D01*
Y-63400D01*
X51900Y-69400D01*
X40500D01*
X34100Y-63000D01*
Y-45600D01*
G01X51830Y-23000D02*
Y-25500D01*
X51170D01*
X50950Y-25370D01*
X50820Y-25210D01*
X50770Y-24870D01*
X50820Y-24540D01*
X50980Y-24330D01*
X51170Y-24210D01*
X51830D01*
G01X51170D02*
X50770Y-23000D01*
G01X49610Y-24040D02*
X49420Y-24330D01*
X49260Y-24500D01*
X49050Y-24580D01*
X48860Y-24500D01*
X48730Y-24330D01*
X48620Y-24080D01*
X48590Y-23790D01*
X48620Y-23540D01*
X48730Y-23290D01*
X48890Y-23080D01*
X49070Y-23000D01*
X49290Y-23080D01*
X49470Y-23330D01*
X49580Y-23710D01*
X49610Y-24120D01*
X49550Y-24670D01*
X49470Y-24960D01*
X49340Y-25250D01*
X49150Y-25460D01*
X48970Y-25500D01*
X48780Y-25420D01*
X48650Y-25210D01*
G01X67100Y-20400D02*
Y-26600D01*
X52900D01*
Y-20400D01*
X67100D01*
G01X63600Y26400D02*
X57400D01*
Y40600D01*
X63600D01*
Y26400D01*
G01X59600Y45890D02*
X62100D01*
Y45350D01*
X61970Y45140D01*
X61810Y44980D01*
X61560Y44850D01*
X61270Y44740D01*
X60850Y44710D01*
X60430Y44740D01*
X60140Y44850D01*
X59890Y44980D01*
X59720Y45140D01*
X59600Y45350D01*
Y45890D01*
G01X61680Y43610D02*
X61930Y43450D01*
X62060Y43260D01*
X62100Y43050D01*
X62020Y42780D01*
X61810Y42590D01*
X61560Y42540D01*
X61310Y42570D01*
X61100Y42670D01*
X60680Y43210D01*
X60390Y43450D01*
X59970Y43610D01*
X59600Y43660D01*
Y42540D01*
G01X57800Y58800D02*
X63200D01*
Y51200D01*
X57800D01*
Y58800D01*
G01X61000Y41670D02*
X58500D01*
Y42330D01*
X58630Y42550D01*
X58790Y42680D01*
X59130Y42730D01*
X59460Y42680D01*
X59670Y42520D01*
X59790Y42330D01*
Y41670D01*
G01Y42330D02*
X61000Y42730D01*
G01X58920Y43890D02*
X58670Y44050D01*
X58540Y44240D01*
X58500Y44450D01*
X58580Y44720D01*
X58790Y44910D01*
X59040Y44960D01*
X59290Y44930D01*
X59500Y44830D01*
X59920Y44290D01*
X60210Y44050D01*
X60630Y43890D01*
X61000Y43840D01*
Y44960D01*
G01X42600Y52900D02*
X36400D01*
Y67100D01*
X42600D01*
Y52900D01*
G01X36310Y53600D02*
Y51810D01*
X36420Y51430D01*
X36630Y51180D01*
X36900Y51100D01*
X37170Y51180D01*
X37380Y51430D01*
X37490Y51810D01*
Y53600D01*
G01X39100Y51100D02*
Y53600D01*
X38780Y53100D01*
G01Y51100D02*
X39420D01*
G01X44900Y80970D02*
X46420D01*
G01X45600Y82050D02*
Y79880D01*
G01X40000Y68170D02*
X37500D01*
Y68830D01*
X37630Y69050D01*
X37790Y69180D01*
X38130Y69230D01*
X38460Y69180D01*
X38670Y69020D01*
X38790Y68830D01*
Y68170D01*
G01Y68830D02*
X40000Y69230D01*
G01X39630Y70310D02*
X39830Y70470D01*
X39960Y70660D01*
X40000Y70900D01*
X39920Y71140D01*
X39750Y71330D01*
X39460Y71460D01*
X39130Y71490D01*
X38790Y71430D01*
X38580Y71300D01*
X38420Y71110D01*
X38380Y70930D01*
X38420Y70740D01*
X38580Y70500D01*
X37500Y70580D01*
Y71300D01*
G01X36070Y88500D02*
X36200Y88250D01*
X36360Y88080D01*
X36550Y88000D01*
X36760Y88080D01*
X36920Y88250D01*
X37080Y88500D01*
X37130Y88830D01*
Y90500D01*
G01X39120Y88000D02*
Y90500D01*
X38130Y88710D01*
X39470D01*
G01X81500Y-52500D02*
G03I-7000J0D01*
G01X76100Y-30980D02*
X74580D01*
G01X75400Y-32060D02*
Y-29890D01*
G01X84930Y-38500D02*
X84800Y-38250D01*
X84640Y-38080D01*
X84450Y-38000D01*
X84240Y-38080D01*
X84080Y-38250D01*
X83920Y-38500D01*
X83870Y-38830D01*
Y-40500D01*
G01X82790Y-38370D02*
X82630Y-38170D01*
X82440Y-38040D01*
X82200Y-38000D01*
X81960Y-38080D01*
X81770Y-38250D01*
X81640Y-38540D01*
X81610Y-38870D01*
X81670Y-39210D01*
X81800Y-39420D01*
X81990Y-39580D01*
X82170Y-39620D01*
X82360Y-39580D01*
X82600Y-39420D01*
X82520Y-40500D01*
X81800D01*
G01X89700Y-20100D02*
Y-36900D01*
X77000D01*
Y-20100D01*
X89700D01*
G01X72770Y-42500D02*
X72900Y-42750D01*
X73060Y-42920D01*
X73250Y-43000D01*
X73460Y-42920D01*
X73620Y-42750D01*
X73780Y-42500D01*
X73830Y-42170D01*
Y-40500D01*
G01X74990Y-41960D02*
X75180Y-41670D01*
X75340Y-41500D01*
X75550Y-41420D01*
X75740Y-41500D01*
X75870Y-41670D01*
X75980Y-41920D01*
X76010Y-42210D01*
X75980Y-42460D01*
X75870Y-42710D01*
X75710Y-42920D01*
X75530Y-43000D01*
X75310Y-42920D01*
X75130Y-42670D01*
X75020Y-42290D01*
X74990Y-41880D01*
X75050Y-41330D01*
X75130Y-41040D01*
X75260Y-40750D01*
X75450Y-40540D01*
X75630Y-40500D01*
X75820Y-40580D01*
X75950Y-40790D01*
G01X82300Y-14400D02*
Y7400D01*
X95100D01*
Y-14400D01*
X82300D01*
G01X83070Y34000D02*
X83200Y33750D01*
X83360Y33580D01*
X83550Y33500D01*
X83760Y33580D01*
X83920Y33750D01*
X84080Y34000D01*
X84130Y34330D01*
Y36000D01*
G01X85800Y33500D02*
Y36000D01*
X85480Y35500D01*
G01Y33500D02*
X86120D01*
G01X78300Y15600D02*
Y32400D01*
X91000D01*
Y15600D01*
X78300D01*
G01X74600Y26400D02*
X68400D01*
Y40600D01*
X74600D01*
Y26400D01*
G01X70600Y45890D02*
X73100D01*
Y45350D01*
X72970Y45140D01*
X72810Y44980D01*
X72560Y44850D01*
X72270Y44740D01*
X71850Y44710D01*
X71430Y44740D01*
X71140Y44850D01*
X70890Y44980D01*
X70720Y45140D01*
X70600Y45350D01*
Y45890D01*
G01Y43100D02*
X73100D01*
X72600Y43420D01*
G01X70600D02*
Y42780D01*
G01X68800Y58800D02*
X74200D01*
Y51200D01*
X68800D01*
Y58800D01*
G01X72000Y41670D02*
X69500D01*
Y42330D01*
X69630Y42550D01*
X69790Y42680D01*
X70130Y42730D01*
X70460Y42680D01*
X70670Y42520D01*
X70790Y42330D01*
Y41670D01*
G01Y42330D02*
X72000Y42730D01*
G01Y44400D02*
X69500D01*
X70000Y44080D01*
G01X72000D02*
Y44720D01*
G01X96570Y700D02*
X96700Y450D01*
X96860Y280D01*
X97050Y200D01*
X97260Y280D01*
X97420Y450D01*
X97580Y700D01*
X97630Y1030D01*
Y2700D01*
G01X98790Y2280D02*
X98950Y2530D01*
X99140Y2660D01*
X99350Y2700D01*
X99620Y2620D01*
X99810Y2410D01*
X99860Y2160D01*
X99830Y1910D01*
X99730Y1700D01*
X99190Y1280D01*
X98950Y990D01*
X98790Y570D01*
X98740Y200D01*
X99860D01*
G01X91900Y26470D02*
X93420D01*
G01X92600Y27550D02*
Y25380D01*
G54D11*
G01X-19100Y-58800D02*
X-19450Y-58570D01*
X-19850Y-58420D01*
X-20320D01*
X-20850Y-58650D01*
X-21250Y-59020D01*
X-21550Y-59470D01*
X-21780Y-60220D01*
X-21840Y-60900D01*
X-21720Y-61570D01*
X-21550Y-62020D01*
X-21200Y-62470D01*
X-20790Y-62770D01*
X-20380Y-62920D01*
X-19970D01*
X-19560Y-62770D01*
X-19210Y-62550D01*
X-18920Y-62250D01*
G01X-14880Y-62920D02*
Y-58420D01*
X-17040Y-61640D01*
X-14120D01*
G54D12*
G01X-12100Y-87350D02*
X500D01*
G01Y-93650D02*
X-12100D01*
G54D13*
G01X42900Y-22400D02*
X-37900D01*
Y46800D01*
X42900D01*
Y-22400D01*
M02*
