G04 ================== begin FILE IDENTIFICATION RECORD ==================*
G04 Layout Name:  C:/Users/NhatThanh/Desktop/CC3200board/mainBoard2.brd*
G04 Film Name:    TOP*
G04 File Format:  Gerber RS274X*
G04 File Origin:  Cadence Allegro 16.6-P004*
G04 Origin Date:  Thu May 25 13:29:12 2017*
G04 *
G04 Layer:  ETCH/TOP*
G04 Layer:  PIN/TOP*
G04 Layer:  VIA CLASS/TOP*
G04 *
G04 Offset:    (0.0 0.0)*
G04 Mirror:    No*
G04 Mode:      Positive*
G04 Rotation:  0*
G04 FullContactRelief:  No*
G04 UndefLineWidth:     6.0*
G04 ================== end FILE IDENTIFICATION RECORD ====================*
%FSLAX25Y25*MOIN*%
%IR0*IPPOS*OFA0.00000B0.00000*MIA0B0*SFA1.00000B1.00000*%
%ADD10C,.14*%
%ADD25R,.028X.158*%
%ADD23R,.05X.05*%
%ADD19R,.032X.032*%
%ADD16R,.052X.052*%
%ADD12R,.052X.061*%
%ADD11R,.052X.052*%
%ADD21R,.064X.032*%
%ADD20R,.032X.064*%
%ADD14C,.07*%
%ADD17R,.019X.026*%
%ADD28C,.039*%
%ADD18R,.026X.0228*%
%ADD26R,.047X.047*%
%ADD15R,.07X.07*%
%ADD13C,.0394*%
%ADD27R,.039X.039*%
%ADD24R,.079X.079*%
%ADD22R,.0394X.0394*%
%ADD29C,.012*%
%ADD30C,.035*%
%ADD31C,.018*%
%ADD32R,.0922X.1012*%
%ADD33R,.0722X.1042*%
%ADD34C,.0794*%
G75*
%LPD*%
G75*
G36*
G01X800Y-94800D02*
Y-72400D01*
X-16200D01*
Y-47050D01*
G03Y-45750I-3700J650D01*
G01Y-45100D01*
X-16240D01*
Y-19500D01*
G03X-16380Y-18470I-3762J13D01*
G01X-16390Y-18450D01*
Y-14290D01*
X-23610D01*
Y-18450D01*
X-23620Y-18470D01*
G03X-23760Y-19500I3622J-1017D01*
G01Y-47860D01*
X-23700Y-47920D01*
Y-72400D01*
X-25500D01*
Y-94100D01*
G02X-26010Y-94480I-399J4D01*
G02X74130Y64130I26039J94477D01*
G02X73830Y63470I-304J-260D01*
G01X67130D01*
Y62010D01*
X64870D01*
Y63470D01*
X56130D01*
Y62010D01*
X55400D01*
X52300Y58910D01*
X44120D01*
Y68620D01*
X42110D01*
Y73010D01*
G03X43460Y76270I-2610J2990D01*
G01Y84960D01*
X35540D01*
Y76270D01*
G03X36890Y73010I3960J-270D01*
G01Y68620D01*
X34880D01*
Y58910D01*
X34470D01*
X34450Y59080D01*
G03X28650Y54960I-3949J-583D01*
G02X28470Y54210I-187J-352D01*
G01X13180D01*
G02X12850Y54830I3J399D01*
G03X12110Y60020I-3349J2170D01*
G01Y64390D01*
X14110D01*
Y73610D01*
X4890D01*
Y66770D01*
G02X4210Y66480I-400J-4D01*
G01X2610Y68080D01*
Y73610D01*
X-6610D01*
Y64390D01*
X-1080D01*
X-110Y63420D01*
Y59920D01*
G03X-900Y54820I2611J-3016D01*
G02X-1250Y54210I-343J-209D01*
G01X-6000D01*
G02X-6390Y54690I1J399D01*
G03X-7690Y58520I-3909J809D01*
G01Y61080D01*
X-10320Y63710D01*
G02X-10030Y64390I286J280D01*
G01X-8890D01*
Y73610D01*
X-18110D01*
Y71610D01*
X-20420D01*
X-20520Y71710D01*
Y76920D01*
X-20360Y76960D01*
G03X-25230Y80650I-886J3889D01*
G01Y80560D01*
X-25490Y80300D01*
Y80200D01*
X-25740Y79950D01*
Y69550D01*
X-22580Y66390D01*
X-18110D01*
Y64390D01*
X-16110D01*
Y62980D01*
G02X-16450Y62840I-200J4D01*
G01X-16520Y62910D01*
X-28380D01*
G03X-29240Y63650I-3005J-2623D01*
G02X-29020Y64390I215J339D01*
G01X-27390D01*
Y73610D01*
X-36610D01*
Y71610D01*
X-41580D01*
X-47010Y66180D01*
Y54880D01*
G02X-47630Y54550I-399J3D01*
G03X-53780Y51000I-2166J-3349D01*
G01Y50910D01*
X-55580Y49110D01*
X-56880D01*
Y59000D01*
X-43190Y72690D01*
X-43080Y72660D01*
G03X-45080Y79030I1082J3839D01*
G01X-64410Y59710D01*
Y59120D01*
X-66120D01*
Y45570D01*
X-73710Y37980D01*
Y27760D01*
X-75710D01*
Y17640D01*
X-74520D01*
G02X-74230Y16960I4J-400D01*
G01X-79210Y11980D01*
X-79300D01*
G03X-75520Y8200I-200J-3980D01*
G01Y8290D01*
X-68490Y15320D01*
Y17640D01*
X-66490D01*
Y27760D01*
X-68490D01*
Y35820D01*
X-62430Y41880D01*
X-57280D01*
G02X-56990Y41200I4J-400D01*
G01X-59610Y38580D01*
Y35510D01*
X-62510D01*
Y24490D01*
X-61280D01*
G02X-60990Y23810I2J-401D01*
G03X-59960Y15340I3991J-3812D01*
G02Y14660I-209J-340D01*
G03Y5340I2960J-4660D01*
G02Y4660I-209J-340D01*
G03X-54040I2960J-4660D01*
G02Y5340I209J340D01*
G03Y14660I-2960J4660D01*
G02Y15340I209J340D01*
G03X-52940Y16260I-2962J4659D01*
G02X-52360Y16270I295J-271D01*
G01X-45680Y9590D01*
X-45580D01*
G02X-45440Y9250I-4J-200D01*
G01X-46710Y7980D01*
X-46800D01*
G03X-48720Y400I-196J-3983D01*
G02X-48530Y-150I-166J-365D01*
G03X-41020Y-1800I3529J-1856D01*
G01Y-1710D01*
X-40900Y-1590D01*
G02X-40220Y-1880I280J-286D01*
G01Y-11420D01*
X-29780D01*
Y38680D01*
X33620D01*
Y48990D01*
X45520D01*
X47390Y47120D01*
Y11620D01*
G03X47460Y5520I2609J-3020D01*
G02X47210Y4810I-250J-311D01*
G01X45220D01*
Y40820D01*
X34780D01*
Y-14280D01*
X16380D01*
Y-24720D01*
X22090D01*
Y-36590D01*
X20490D01*
Y-38190D01*
X19510D01*
Y-36590D01*
X17910D01*
Y-31290D01*
X12910Y-26290D01*
Y-24720D01*
X13620D01*
Y-14280D01*
X-13620D01*
Y-24720D01*
X-7610D01*
Y-25420D01*
X-8810Y-26620D01*
Y-36640D01*
X-9010Y-36840D01*
Y-37980D01*
G03X-3590Y-38170I2607J-3020D01*
G01Y-35520D01*
G02X-2900Y-35240I400J5D01*
G03X80Y-36490I2901J2739D01*
G02X490Y-36890I10J-399D01*
G01Y-45610D01*
X9510D01*
Y-44010D01*
X10490D01*
Y-45610D01*
X19510D01*
Y-44010D01*
X20490D01*
Y-45610D01*
X29510D01*
Y-44010D01*
X32390D01*
X37340Y-48960D01*
X42590D01*
Y-55960D01*
X49410D01*
Y-48960D01*
X59660D01*
X68210Y-40410D01*
X76210D01*
X81660Y-34960D01*
X85460D01*
Y-27040D01*
X77540D01*
Y-28090D01*
X72710D01*
X68620Y-24000D01*
Y-18880D01*
X66910D01*
Y-15230D01*
G03X67890Y-11600I-2909J2733D01*
G02X68280Y-11110I388J91D01*
G01X87510D01*
G03X93580Y-6000I2989J2609D01*
G03X87510Y-890I-3081J2501D01*
G01X69580D01*
X65830Y2870D01*
G02X65920Y3500I280J281D01*
G03X61330Y9960I-1916J3499D01*
G01X61270Y9910D01*
X60210D01*
X56310Y13810D01*
Y15680D01*
G02X56780Y16080I401J5D01*
G03X61480Y20200I718J3922D01*
G01Y20290D01*
X63110Y21920D01*
Y24880D01*
X65120D01*
Y42120D01*
X63110D01*
Y46530D01*
X64870D01*
Y56190D01*
X67130D01*
Y46530D01*
X68890D01*
Y42120D01*
X66880D01*
Y24880D01*
X68890D01*
Y23520D01*
G03X74110I2610J-3020D01*
G01Y24880D01*
X76120D01*
Y42120D01*
X74110D01*
Y46530D01*
X75870D01*
Y60930D01*
G02X76580Y61180I399J0D01*
G02X24880Y-94800I-76553J-61185D01*
G01X800D01*
G37*
G36*
G01X-47990Y25630D02*
G02X-48670Y25360I-399J14D01*
G01X-51490Y28180D01*
Y35510D01*
X-54390D01*
Y36420D01*
X-41790Y49020D01*
Y64020D01*
X-39420Y66390D01*
X-36610D01*
Y64390D01*
X-33780D01*
G02X-33560Y63650I5J-401D01*
G03X-34640Y57970I2160J-3353D01*
G02X-34740Y57400I-322J-237D01*
G03X-29480Y51490I2241J-3301D01*
G01X-23470D01*
G03X-18290Y51870I2368J3210D01*
G02X-17610Y51580I280J-287D01*
G01Y49120D01*
X-33620D01*
Y40820D01*
X-40220D01*
Y34810D01*
X-40780D01*
X-40840Y34880D01*
G03X-46470Y29230I-2960J-2680D01*
G02X-46480Y28620I-264J-301D01*
G03X-47990Y25630I2477J-3127D01*
G37*
G36*
G01X39080Y-26890D02*
X37610Y-25420D01*
Y-24720D01*
X38620D01*
Y-16420D01*
X45220D01*
Y-5410D01*
X60220D01*
X62870Y-8060D01*
G02X62720Y-8720I-283J-283D01*
G03X60560Y-10480I1282J-3779D01*
G02X59830Y-10390I-346J203D01*
G03X53390Y-14520I-3832J-1111D01*
G01Y-18880D01*
X51380D01*
Y-26890D01*
X39080D01*
G37*
%LPC*%
G75*
G36*
G01X17820Y63460D02*
X17890Y63520D01*
Y64590D01*
X15990D01*
Y73610D01*
X25010D01*
Y64590D01*
X23110D01*
Y63520D01*
X23180Y63460D01*
G02X17820I-2680J-2960D01*
G37*
G36*
G01X-78890Y-18390D02*
Y-27610D01*
X-88110D01*
Y-22080D01*
X-91510Y-18680D01*
Y-13660D01*
X-93510D01*
Y-3540D01*
X-84290D01*
Y-13660D01*
X-86290D01*
Y-16520D01*
X-84420Y-18390D01*
X-78890D01*
G37*
G54D32*
X-88900Y22700D03*
X-71100Y-8600D03*
G54D33*
X-30000Y-19500D03*
G54D34*
X86500Y21500D03*
%LPD*%
G75*
G54D10*
X-73000Y-54500D03*
X2500Y91000D03*
X74500Y-52500D03*
G54D20*
X-30000Y-19500D03*
X-25000D03*
X-20000D03*
Y43900D03*
X-25000D03*
X-30000D03*
X-15000Y-19500D03*
X-10000D03*
X-5000D03*
X0D03*
X5000D03*
Y43900D03*
X0D03*
X-5000D03*
X-10000D03*
X-15000D03*
X10000Y-19500D03*
X15000D03*
X20000D03*
X25000D03*
X30000D03*
X35000D03*
Y43900D03*
X30000D03*
X25000D03*
X20000D03*
X15000D03*
X10000D03*
G54D11*
X-75500Y-23000D03*
X-83500D03*
X56000Y-23500D03*
X64000D03*
G54D30*
G01X-19910Y-90000D02*
Y-71200D01*
G01X-19900Y-57000D02*
Y-64400D01*
G01X-20000Y-19500D02*
Y-46300D01*
X-19900Y-46400D01*
G54D21*
X-35000Y7200D03*
Y2200D03*
Y-2800D03*
Y-7800D03*
Y-12800D03*
Y32200D03*
Y27200D03*
Y22200D03*
Y17200D03*
Y12200D03*
Y37200D03*
X40000Y-12800D03*
Y-7800D03*
Y-2800D03*
Y2200D03*
Y7200D03*
Y12200D03*
Y17200D03*
Y22200D03*
Y27200D03*
Y32200D03*
Y37200D03*
G54D12*
X-88900Y-8600D03*
X-71100D03*
X-88900Y22700D03*
X-71100D03*
G54D31*
G01X-61500Y54500D02*
Y58500D01*
X-43500Y76500D01*
X-42000D01*
G01X-19910Y-71200D02*
Y-67900D01*
G01X-19900Y-53730D02*
Y-57000D01*
G01Y-64400D02*
X-19910Y-64410D01*
Y-67900D01*
G01X-19900Y-46400D02*
Y-49870D01*
G01X15000Y-41100D02*
X5000D01*
G01Y-19500D02*
Y-24100D01*
X5900Y-25000D01*
Y-36300D01*
X5000Y-37200D01*
Y-41100D01*
G01X15000D02*
Y-32500D01*
X10000Y-27500D01*
Y-19500D01*
G01X25000Y-41100D02*
X15000D01*
G01X25000D02*
X33600D01*
X38550Y-46050D01*
X46000D01*
G01X25000Y-19500D02*
Y-41100D01*
G01X30500Y58500D02*
X33000Y56000D01*
X39500D01*
G01X81500Y-31000D02*
X75000Y-37500D01*
X67000D01*
X58450Y-46050D01*
X46000D01*
G01X53400Y55890D02*
Y12600D01*
X59000Y7000D01*
X64000D01*
G01X60500Y59100D02*
X56610D01*
X53400Y55890D01*
G01X60500Y59100D02*
X71500D01*
G01X53400Y55890D02*
X53290Y56000D01*
X39500D01*
G01X64000Y-23500D02*
Y-12500D01*
G01X81500Y-31000D02*
X71500D01*
X64000Y-23500D01*
G54D22*
X-12100Y-90500D03*
X500D03*
G54D13*
X-79500Y8000D03*
X-55500Y-18100D03*
X-47000Y4000D03*
X-45000Y-2000D03*
X-49800Y51200D03*
X-47000Y40100D03*
X-52500Y76500D03*
X-28500Y-90600D03*
X-31600Y-85800D03*
X-28600Y-82900D03*
Y-78400D03*
X-28400Y-73800D03*
X-26400Y-69600D03*
X-26500Y-64800D03*
X-26700Y-60300D03*
X-26800Y-55600D03*
Y-51100D03*
X-26900Y-46500D03*
X-27000Y-41900D03*
Y-37200D03*
X-27100Y-32500D03*
X-27200Y-27700D03*
X-43800Y32200D03*
X-26400Y35000D03*
X-44000Y25500D03*
X-31400Y60300D03*
X-21100Y54700D03*
X-32500Y54100D03*
X-42000Y76500D03*
X-21250Y80850D03*
X6400Y-86800D03*
X4000Y-83100D03*
X3800Y-78600D03*
Y-73900D03*
X4700Y-69300D03*
X-100Y-69400D03*
X-5000Y-69600D03*
X-9700Y-69400D03*
X-10700Y-64600D03*
X-12800Y-60300D03*
X-12600Y-55400D03*
Y-50600D03*
X-12700Y-46000D03*
X0Y-32500D03*
X-12700Y-41400D03*
Y-36700D03*
X-12900Y-32000D03*
X-13200Y-27200D03*
X-6400Y-41000D03*
X-10300Y55500D03*
X2500Y56900D03*
X9200Y-90500D03*
X15000Y-64400D03*
X19000Y-28000D03*
X30500Y58500D03*
X20500Y60500D03*
X9500Y57000D03*
X49000Y-19500D03*
X50000Y8600D03*
X56000Y-11500D03*
X57500Y20000D03*
X83750Y-43250D03*
X64000Y-12500D03*
Y7000D03*
X71500Y20500D03*
G54D14*
X-57000Y0D03*
Y10000D03*
Y20000D03*
G54D23*
X5000Y-48900D03*
Y-41100D03*
X15000Y-48900D03*
X25000D03*
X15000Y-41100D03*
X25000D03*
X20500Y76900D03*
Y69100D03*
G54D24*
X-3500Y6500D03*
X8400D03*
X-3500Y18400D03*
X8400D03*
X-3500Y30300D03*
X8400D03*
X20300Y6500D03*
Y30300D03*
Y18400D03*
G54D15*
X-57000Y30000D03*
G54D16*
X-61500Y46500D03*
Y54500D03*
X-32000Y77000D03*
Y69000D03*
X-13500Y77000D03*
Y69000D03*
X-2000Y77000D03*
Y69000D03*
X9500Y77000D03*
Y69000D03*
X60500Y29500D03*
Y37500D03*
X39500Y56000D03*
Y64000D03*
X71500Y29500D03*
Y37500D03*
G54D25*
X46000Y-68950D03*
Y-46050D03*
G54D26*
X60500Y50900D03*
Y59100D03*
X71500Y50900D03*
Y59100D03*
G54D17*
X-19910Y-67900D03*
X-16690D03*
G54D27*
X39500Y81000D03*
X81500Y-31000D03*
X86500Y26500D03*
X90500Y1500D03*
G54D18*
X-19900Y-49870D03*
Y-53730D03*
G54D28*
G01X-12100Y-90500D02*
X-19910D01*
G01D02*
Y-90000D01*
G01X-28500Y-90600D02*
X-19910D01*
Y-90500D01*
G01X-29900Y-90600D02*
X-28500D01*
G01X500Y-90500D02*
X9200D01*
G01D02*
Y-90400D01*
X39500Y76000D03*
X81500Y-26000D03*
X86500Y21500D03*
X90500Y-8500D03*
Y-3500D03*
G54D19*
X-35000Y-19500D03*
Y43900D03*
X40000Y-19500D03*
Y43900D03*
G54D29*
G01X-88900Y-8600D02*
Y-17600D01*
X-83500Y-23000D01*
G01X-71100Y22700D02*
Y16400D01*
X-79500Y8000D01*
G01X-35000Y7200D02*
X-43800D01*
X-47000Y4000D01*
G01X-57000Y30000D02*
Y37500D01*
X-44400Y50100D01*
Y65100D01*
X-40500Y69000D01*
X-32000D01*
G01X-35000Y17200D02*
X-44200D01*
X-57000Y30000D01*
G01X-35000Y12200D02*
X-44600D01*
X-52400Y20000D01*
X-57000D01*
G01X-71100Y22700D02*
Y36900D01*
X-61500Y46500D01*
G01D02*
X-54500D01*
X-49800Y51200D01*
G01X-35000Y2200D02*
X-40800D01*
X-45000Y-2000D01*
G01X-35000Y32200D02*
X-43800D01*
G01X-44000Y25500D02*
X-42300Y27200D01*
X-35000D01*
G01X-15000Y43900D02*
Y57700D01*
X-17600Y60300D01*
X-31400D01*
G01X-32500Y54100D02*
X-21700D01*
X-21100Y54700D01*
G01X-21250Y80850D02*
X-22880Y79220D01*
Y79120D01*
X-23130Y78870D01*
Y70630D01*
X-21500Y69000D01*
X-13500D01*
G01X-16690Y-67900D02*
X-13000D01*
G01X0Y-19500D02*
Y-32500D01*
G01X-6400Y-41000D02*
Y-37920D01*
X-6200Y-37720D01*
Y-27700D01*
X-5000Y-26500D01*
Y-19500D01*
G01X50000Y8600D02*
Y48200D01*
X46600Y51600D01*
X-7500D01*
X-10000Y49100D01*
Y43900D01*
G01X-10300Y55500D02*
Y60000D01*
X-13500Y63200D01*
Y69000D01*
G01X2500Y56900D02*
Y64500D01*
X-2000Y69000D01*
G01X9500Y57000D02*
Y69000D01*
G01X20500Y60500D02*
Y69100D01*
G01X43500Y-68950D02*
X46000D01*
G01X56000Y-23500D02*
Y-27200D01*
X53700Y-29500D01*
X38000D01*
X35000Y-26500D01*
Y-19500D01*
G01X56000Y-23500D02*
Y-11500D01*
G01X49000Y-19500D02*
X40000D01*
G01X90500Y-8500D02*
X67000D01*
X61300Y-2800D01*
X40000D01*
G01X90500Y-3500D02*
X68500D01*
X62800Y2200D01*
X40000D01*
G01X57500Y20000D02*
X60500Y23000D01*
Y29500D01*
G01X39500Y64000D02*
Y76000D01*
G01X71500Y20500D02*
Y29500D01*
G01Y37500D02*
Y50900D01*
G01X60500Y37500D02*
Y50900D01*
M02*
