G04 ================== begin FILE IDENTIFICATION RECORD ==================*
G04 Layout Name:  D:/New folder/Thietke1/main2.brd*
G04 Film Name:    ar_BOTTOM*
G04 File Format:  Gerber RS274X*
G04 File Origin:  Cadence Allegro 16.6-P004*
G04 Origin Date:  Mon Apr 03 09:34:15 2017*
G04 *
G04 Layer:  ETCH/BOTTOM*
G04 Layer:  PIN/BOTTOM*
G04 Layer:  VIA CLASS/BOTTOM*
G04 *
G04 Offset:    (0.0 0.0)*
G04 Mirror:    No*
G04 Mode:      Positive*
G04 Rotation:  0*
G04 FullContactRelief:  No*
G04 UndefLineWidth:     6.0*
G04 ================== end FILE IDENTIFICATION RECORD ====================*
%FSLAX25Y25*MOIN*%
%IR0*IPPOS*OFA0.00000B0.00000*MIA0B0*SFA1.00000B1.00000*%
%ADD12C,.256*%
%ADD20R,.05X.05*%
%ADD13C,.031*%
%ADD14R,.052X.052*%
%ADD19R,.061X.052*%
%ADD17R,.052X.052*%
%ADD10C,.07*%
%ADD16C,.039*%
%ADD18R,.047X.047*%
%ADD11R,.07X.07*%
%ADD15R,.039X.039*%
%ADD21C,.02*%
%ADD22C,.012*%
%ADD23R,.1012X.0922*%
%ADD24R,.0792X.0792*%
G75*
%LPD*%
G75*
G36*
G01X25320Y74800D02*
G02X-31540Y72690I-25322J-84799D01*
G02X-31000Y72310I139J-376D01*
G01Y52000D01*
X-7500D01*
Y74800D01*
X25320D01*
G37*
%LPC*%
G75*
G36*
G01X57920Y-21500D02*
G02X64080I3080J2500D01*
G02X57920I-3080J-2500D01*
G37*
G36*
G01X36420Y19980D02*
G02X39350Y19450I1083J-2379D01*
G01X47110Y11680D01*
Y-5780D01*
X49490D01*
Y-3000D01*
G02X55510I3010J0D01*
G01Y-5780D01*
X57120D01*
Y-15020D01*
X47110D01*
Y-22520D01*
X50610Y-26020D01*
Y-40010D01*
G02X45390I-2610J-2990D01*
G01Y-28180D01*
X41890Y-24680D01*
Y-15020D01*
X39880D01*
Y-5780D01*
X41890D01*
Y9520D01*
X35650Y15750D01*
G02X34890Y17590I1852J1842D01*
G03X34490Y17990I-400J0D01*
G01X25740D01*
Y27210D01*
X35860D01*
Y20340D01*
G03X36420Y19980I399J5D01*
G37*
G36*
G01X-14880Y-94120D02*
X-24120D01*
Y-92110D01*
X-24280D01*
X-32210Y-84180D01*
Y-64180D01*
X-33910Y-62480D01*
Y-40280D01*
X-41980Y-32210D01*
X-45590D01*
Y-32700D01*
G02X-48460Y-35300I-2613J0D01*
G03X-48870Y-35840I-39J-396D01*
G02X-53150Y-38650I-2428J-967D01*
G01X-54070Y-37720D01*
X-54310Y-37960D01*
X-54250Y-38080D01*
G03X-52990Y-39540I2955J1277D01*
G02X-52800Y-39880I-210J-341D01*
G03X-52400Y-40280I400J0D01*
G01X-44880D01*
Y-57520D01*
X-46890D01*
Y-60620D01*
X-43470Y-64030D01*
G02X-47170Y-67730I-1850J-1850D01*
G01X-52110Y-62780D01*
Y-57520D01*
X-54120D01*
Y-47510D01*
X-54280D01*
X-62110Y-39680D01*
Y-34490D01*
G02X-63460Y-31230I2610J2990D01*
G01Y-22540D01*
X-57920D01*
G03X-57630Y-21860I4J400D01*
G01X-60110Y-19380D01*
Y-14210D01*
G03X-60880Y-14070I-399J-7D01*
G02X-68960Y-7340I-5118J2071D01*
G03Y-6660I-209J340D01*
G02Y2660I2960J4660D01*
G03Y3340I-209J340D01*
G02X-69990Y11810I2961J4658D01*
G03X-70280Y12490I-288J279D01*
G01X-71510D01*
Y23510D01*
X-60490D01*
Y20610D01*
X-60320D01*
X-57890Y18180D01*
Y16580D01*
X-51890Y10580D01*
Y-3920D01*
X-51780Y-4030D01*
G03X-51100Y-3780I281J285D01*
G02X-46650Y-2150I2603J-217D01*
G01X-45790Y-3020D01*
X-33610D01*
Y-890D01*
X-24390D01*
Y-19110D01*
X-33610D01*
Y-17110D01*
X-34080D01*
X-36580Y-14610D01*
X-47530D01*
G03X-47820Y-15290I-4J-400D01*
G01X-46390Y-16720D01*
Y-24000D01*
G02X-50330Y-26250I-2612J0D01*
G03X-50930Y-26590I-201J-344D01*
G01Y-28870D01*
G03X-50250Y-29160I400J-4D01*
G01X-48080Y-26990D01*
X-39820D01*
X-28690Y-38120D01*
Y-60320D01*
X-26990Y-62020D01*
Y-82020D01*
X-24800Y-84210D01*
G03X-24120Y-83920I280J286D01*
G01Y-76880D01*
X-22110D01*
Y-76720D01*
X-16610Y-71220D01*
Y-69890D01*
X-19120D01*
X-19400Y-69600D01*
G02X-19250Y-68940I281J283D01*
G03X-17350Y-67190I-1048J3044D01*
G01X-17290Y-67060D01*
X-17530Y-66820D01*
X-18450Y-67750D01*
G02X-22150Y-64050I-1850J1850D01*
G01X-19010Y-60920D01*
Y-54220D01*
X-13870Y-49080D01*
Y-44030D01*
X-5130D01*
Y-45390D01*
X-870D01*
Y-44030D01*
X490D01*
Y-41250D01*
X5250Y-36490D01*
X9250D01*
X11960Y-33780D01*
Y-8320D01*
X11660Y-8020D01*
X6680D01*
Y-6410D01*
X-1650D01*
X-4510Y-3550D01*
Y17300D01*
G02X-4500Y17560I3011J14D01*
G03X-4900Y17990I-398J30D01*
G01X-5560D01*
Y26380D01*
G03X-6240Y26670I-400J4D01*
G01X-6890Y26020D01*
Y20600D01*
G02X-10830Y18350I-2612J0D01*
G03X-11430Y17940I-206J-342D01*
G02X-11390Y17500I-2569J-455D01*
G01Y8880D01*
X-8890Y6380D01*
Y1110D01*
X-6890D01*
Y-8110D01*
X-16110D01*
Y1110D01*
X-14110D01*
Y4220D01*
X-16610Y6720D01*
Y17500D01*
G02X-12670Y19750I2612J0D01*
G03X-12070Y20160I206J342D01*
G02X-12110Y20600I2569J455D01*
G01Y28180D01*
X-5580Y34710D01*
X17020D01*
X25320Y43010D01*
X25740D01*
Y45010D01*
X35860D01*
Y39630D01*
X38460D01*
X43080Y35010D01*
X48410D01*
Y25990D01*
X39390D01*
Y31320D01*
X36300Y34410D01*
X33100D01*
X31720Y35790D01*
X25480D01*
X19180Y29490D01*
X17180D01*
X14250Y26550D01*
G02X9860Y29000I-1849J1846D01*
G03X9470Y29490I-390J90D01*
G01X9210D01*
Y29260D01*
X9230Y29220D01*
G02X9240Y29010I-382J-123D01*
G03X10350Y25920I3160J-609D01*
G02X10500Y25610I-252J-313D01*
G03X10900Y25210I399J-1D01*
G01X16780D01*
X26110Y15880D01*
Y9310D01*
X28110D01*
Y90D01*
X18890D01*
Y9310D01*
X20890D01*
Y13720D01*
X14620Y19990D01*
X14280D01*
Y19710D01*
X14330Y19660D01*
G02X15010Y17900I-1938J-1760D01*
G01Y9220D01*
X15920D01*
Y-3760D01*
X17980Y-5820D01*
Y-36280D01*
X11750Y-42510D01*
X7750D01*
X6510Y-43750D01*
Y-44030D01*
X7870D01*
Y-60970D01*
X2820D01*
X110Y-63680D01*
Y-88080D01*
X-3920Y-92110D01*
X-4380D01*
Y-94120D01*
X-13620D01*
Y-76880D01*
X-11610D01*
Y-74570D01*
G03X-12290Y-74280I-400J4D01*
G01X-14880Y-76870D01*
Y-94120D01*
G37*
G54D23*
X-500Y40400D03*
G54D24*
X22000Y65500D03*
%LPD*%
G75*
G54D10*
X-66000Y-12000D03*
Y-2000D03*
Y8000D03*
G54D11*
Y18000D03*
G54D20*
X43900Y22700D03*
Y30500D03*
G54D21*
G01X3500Y-48400D02*
Y-42500D01*
X6500Y-39500D01*
X10500D01*
X14970Y-35030D01*
Y-7070D01*
X11300Y-3400D01*
G01X3500Y-48400D02*
X-4530D01*
X-5010Y-48410D01*
X-5070Y-48400D01*
X-9500D01*
G01X-1500Y17300D02*
Y-2300D01*
X-400Y-3400D01*
X11300D01*
G01X52500Y-10400D02*
Y-3000D01*
G54D12*
X-57500Y39500D03*
X13500Y-84500D03*
X48500Y48000D03*
G54D22*
G01X-51300Y-36800D02*
X-53540Y-34560D01*
Y-22260D01*
X-57500Y-18300D01*
Y-10500D01*
X-66000Y-2000D01*
G01X-45320Y-65880D02*
X-49500Y-61700D01*
Y-52900D01*
G01X-59500Y-31500D02*
Y-38600D01*
X-53200Y-44900D01*
X-49500D01*
G01X-49000Y-24000D02*
Y-17800D01*
X-52500Y-14300D01*
Y-7000D01*
X-54500Y-5000D01*
Y9500D01*
X-60500Y15500D01*
Y17100D01*
X-61400Y18000D01*
X-66000D01*
G01X-58000Y5000D02*
Y-5500D01*
X-55000Y-8500D01*
Y-16300D01*
X-52200Y-19100D01*
G01X-19500Y-89500D02*
X-23200D01*
X-29600Y-83100D01*
Y-63100D01*
X-31300Y-61400D01*
Y-39200D01*
X-40900Y-29600D01*
X-47000D01*
X-48200Y-30800D01*
Y-32700D01*
G01X-29000Y-14500D02*
X-33000D01*
X-35500Y-12000D01*
X-49000D01*
G01X-29000Y-5500D02*
X-29130Y-5630D01*
X-46870D01*
X-48500Y-4000D01*
G01X-9500Y-48400D02*
X-16400Y-55300D01*
Y-62000D01*
X-20300Y-65900D01*
G01X-9500Y-56600D02*
X-14000Y-61100D01*
Y-72300D01*
X-19500Y-77800D01*
Y-81500D01*
G01X-14000Y17500D02*
Y7800D01*
X-11500Y5300D01*
Y-3500D01*
G01X3500Y-56600D02*
X-2500Y-62600D01*
Y-87000D01*
X-5000Y-89500D01*
X-9000D01*
G01Y-81500D02*
Y-72500D01*
G01X12400Y17900D02*
Y9400D01*
X11300Y8300D01*
Y4600D01*
G01X-500Y22600D02*
X15700D01*
X23500Y14800D01*
Y4700D01*
G01X14600Y32100D02*
X-4500D01*
X-9500Y27100D01*
Y20600D01*
G01X14600Y32100D02*
Y30600D01*
X12400Y28400D01*
G01X30800Y40400D02*
X26400D01*
X18100Y32100D01*
X14600D01*
G01X43900Y30500D02*
X37380Y37020D01*
X34180D01*
X30800Y40400D01*
G01X37500Y17600D02*
X44500Y10600D01*
Y-10400D01*
G01D02*
Y-23600D01*
X48000Y-27100D01*
Y-43000D01*
G54D13*
X-45320Y-65880D03*
X-47030Y-72460D03*
X-52030D03*
Y-77460D03*
X-47030D03*
X-41530Y-72860D03*
Y-77860D03*
X-39610Y-59240D03*
X-49000Y-24000D03*
X-52200Y-19100D03*
X-51300Y-36800D03*
X-49000Y-12000D03*
X-48200Y-32700D03*
X-58000Y5000D03*
X-48500Y-4000D03*
X-43800Y38200D03*
X-40100Y17400D03*
X-40200Y21500D03*
X-40100Y25400D03*
X-40600Y29100D03*
X-41600Y32600D03*
X-38100Y33800D03*
X-39440Y37920D03*
X-53100Y57900D03*
X-48300Y57400D03*
X-48600Y61500D03*
X-40500Y66300D03*
X-44100Y43100D03*
X-39310Y42850D03*
X-43910Y52450D03*
X-39110D03*
X-39240Y47520D03*
X-44040D03*
X-43810Y62150D03*
X-39010D03*
X-39140Y57220D03*
X-43940D03*
X-20300Y-65900D03*
X-36530Y-72860D03*
Y-77860D03*
X-27500Y-44500D03*
Y-39500D03*
X-17500Y-44500D03*
X-22500D03*
X-22570Y-39640D03*
X-17570D03*
X-27500Y-30000D03*
X-17500Y-20500D03*
X-27500Y-35500D03*
X-34500Y-24000D03*
X-17570Y-25640D03*
X-22570D03*
Y-30140D03*
X-17570D03*
X-23000Y-20500D03*
X-21820Y-14700D03*
X-16820D03*
X-35100Y-19700D03*
X-17570Y-35140D03*
X-22570D03*
X-17500Y4500D03*
X-23000D03*
X-21820Y-10200D03*
X-16820D03*
X-34810Y30D03*
X-34740Y4180D03*
X-36700Y30100D03*
X-35500Y24800D03*
X-36050Y21040D03*
X-33600Y37300D03*
X-33300Y33200D03*
X-32900Y29000D03*
X-31900Y24750D03*
X-32690Y18380D03*
X-20400Y41700D03*
X-20500Y37000D03*
Y33000D03*
X-20700Y28800D03*
X-22200Y24500D03*
X-22090Y19000D03*
X-17700Y26500D03*
X-11400Y36310D03*
X-16330Y31380D03*
X-11530D03*
X-11230Y40580D03*
X-16030D03*
X-16200Y36310D03*
X-17910Y21420D03*
X-14310Y24920D03*
X-14000Y17500D03*
X-35500Y66800D03*
X-34500Y62600D03*
Y58600D03*
X-34400Y54700D03*
X-34700Y50600D03*
X-34900Y46400D03*
X-34200Y42500D03*
X-12100Y49100D03*
X-15800Y49400D03*
X-19900Y49300D03*
X-20200Y46000D03*
X-15900Y45510D03*
X-11100D03*
X-9000Y-72500D03*
X11670Y-64460D03*
Y-59460D03*
X15500Y-46000D03*
X11000D03*
X-4000Y-32500D03*
Y-20500D03*
X8000D03*
Y-32500D03*
X-4000Y-8500D03*
X-1500Y17300D03*
X-9500Y20600D03*
X12400Y28400D03*
Y17900D03*
X-1200Y51100D03*
X-1300Y55100D03*
X-800Y59000D03*
X13090Y51750D03*
X12960Y46820D03*
X12890Y62250D03*
X12760Y57320D03*
X12360Y67520D03*
X2690Y53150D03*
X7490D03*
X7360Y48220D03*
X2560D03*
X2990Y62250D03*
X7790D03*
X7660Y57320D03*
X2860D03*
X7360Y66920D03*
X2560D03*
X-2600Y68200D03*
X-800Y63300D03*
X-5100Y61900D03*
X-5000Y57800D03*
X-4900Y53400D03*
X-4100Y48900D03*
X-8200Y49200D03*
X12490Y72450D03*
X2690Y71850D03*
X7490D03*
X-2100Y72100D03*
X42370Y-69360D03*
X37370D03*
Y-74360D03*
X42370D03*
X31970Y-69660D03*
X26970D03*
Y-74660D03*
X31970D03*
X32070Y-64460D03*
X37070D03*
X21770D03*
X26770D03*
X16670D03*
X37570Y-79960D03*
X32570D03*
Y-84960D03*
X37570D03*
X37070Y-59460D03*
X32070D03*
X26770D03*
X21770D03*
X16670D03*
X20680Y-43200D03*
X25680D03*
X20680Y-38200D03*
X25680D03*
X20680Y-28700D03*
X25680D03*
X20680Y-23700D03*
X25680D03*
X20680Y-19200D03*
Y-14200D03*
X25680D03*
X20680Y-33700D03*
X25680D03*
Y-19200D03*
X25500Y-9500D03*
X20500D03*
X37500Y17600D03*
X42770Y-64260D03*
X47770D03*
X53370Y-69460D03*
X48370D03*
Y-74460D03*
X53370D03*
X67970Y-58660D03*
X62970D03*
Y-63660D03*
X67970D03*
X58270Y-59160D03*
X53270D03*
Y-64160D03*
X58270D03*
X47770Y-59260D03*
X42770D03*
X52500Y-3000D03*
G54D14*
X-49500Y-44900D03*
Y-52900D03*
X-19500Y-81500D03*
Y-89500D03*
X-29000Y-22500D03*
Y-14500D03*
Y2500D03*
Y-5500D03*
X-9000Y-89500D03*
Y-81500D03*
X11300Y4600D03*
Y-3400D03*
X23500Y-3300D03*
Y4700D03*
G54D15*
X-59500Y-26500D03*
X22000Y65500D03*
X48000Y-48000D03*
X61000Y-29000D03*
G54D16*
X-59500Y-31500D03*
X27000Y65500D03*
X48000Y-43000D03*
X61000Y-19000D03*
Y-24000D03*
G54D17*
X-19500Y-3500D03*
X-11500D03*
X44500Y-10400D03*
X52500D03*
G54D18*
X3500Y-56600D03*
Y-48400D03*
X-9500Y-56600D03*
Y-48400D03*
G54D19*
X-500Y22600D03*
Y40400D03*
X30800Y22600D03*
Y40400D03*
M02*
