G04 ================== begin FILE IDENTIFICATION RECORD ==================*
G04 Layout Name:  D:/New folder/Thietke1/main2.brd*
G04 Film Name:    ar_SILK_TOP*
G04 File Format:  Gerber RS274X*
G04 File Origin:  Cadence Allegro 16.6-P004*
G04 Origin Date:  Mon Apr 03 09:34:15 2017*
G04 *
G04 Layer:  BOARD GEOMETRY/SILKSCREEN_TOP*
G04 Layer:  REF DES/SILKSCREEN_TOP*
G04 Layer:  PACKAGE GEOMETRY/SILKSCREEN_TOP*
G04 Layer:  MANUFACTURING/AUTOSILK_TOP*
G04 Layer:  BOARD GEOMETRY/OUTLINE*
G04 *
G04 Offset:    (0.0 0.0)*
G04 Mirror:    No*
G04 Mode:      Positive*
G04 Rotation:  0*
G04 FullContactRelief:  No*
G04 UndefLineWidth:     6.0*
G04 ================== end FILE IDENTIFICATION RECORD ====================*
%FSLAX25Y25*MOIN*%
%IR0*IPPOS*OFA0.00000B0.00000*MIA0B0*SFA1.00000B1.00000*%
%ADD10C,.006*%
%ADD11C,.008*%
%ADD12C,.0039*%
%ADD13C,.01*%
G75*
%LPD*%
G75*
G54D10*
G01X-34640Y35590D02*
X-30640D01*
Y38130D01*
G01Y41960D02*
X-34640D01*
X-33840Y41200D01*
G01X-30640D02*
Y42720D01*
G01X-24400Y37380D02*
Y41420D01*
G01X-28600D02*
Y37380D01*
G01X-25760Y51400D02*
X-30440D01*
G01X-25760Y47200D02*
X-30440D01*
G01X90000Y-10000D02*
G03I-90000J0D01*
G01X-77800Y-10500D02*
Y-13000D01*
G01X-78410Y-10500D02*
X-77190D01*
G01X-76190Y-13000D02*
Y-10500D01*
X-75650D01*
X-75440Y-10630D01*
X-75280Y-10790D01*
X-75150Y-11040D01*
X-75040Y-11330D01*
X-75010Y-11750D01*
X-75040Y-12170D01*
X-75150Y-12460D01*
X-75280Y-12710D01*
X-75440Y-12880D01*
X-75650Y-13000D01*
X-76190D01*
G01X-73720Y-10500D02*
X-73080D01*
G01X-73400D02*
Y-13000D01*
G01X-73720D02*
X-73080D01*
G01X-67700Y-37400D02*
Y-20600D01*
X-55000D01*
Y-37400D01*
X-67700D01*
G01X-71000Y-17000D02*
Y23000D01*
X-61000D01*
Y-17000D01*
X-71000D01*
G01X-78100Y9500D02*
Y7000D01*
G01X-78710Y9500D02*
X-77490D01*
G01X-76590Y7000D02*
Y9500D01*
X-75900Y7420D01*
X-75210Y9500D01*
Y7000D01*
G01X-74260Y7330D02*
X-74050Y7120D01*
X-73810Y7000D01*
X-73590D01*
X-73380Y7120D01*
X-73220Y7330D01*
X-73140Y7630D01*
X-73190Y7920D01*
X-73330Y8170D01*
X-73570Y8330D01*
X-73890Y8420D01*
X-74070Y8580D01*
X-74150Y8870D01*
X-74100Y9170D01*
X-73970Y9370D01*
X-73780Y9500D01*
X-73590D01*
X-73410Y9420D01*
X-73250Y9210D01*
G01X-78000Y-600D02*
Y-3100D01*
G01X-78610Y-600D02*
X-77390D01*
G01X-76390Y-3100D02*
Y-600D01*
X-75850D01*
X-75640Y-730D01*
X-75480Y-890D01*
X-75350Y-1140D01*
X-75240Y-1430D01*
X-75210Y-1850D01*
X-75240Y-2270D01*
X-75350Y-2560D01*
X-75480Y-2810D01*
X-75640Y-2980D01*
X-75850Y-3100D01*
X-76390D01*
G01X-73600D02*
X-73810Y-3060D01*
X-74000Y-2890D01*
X-74160Y-2640D01*
X-74270Y-2350D01*
X-74320Y-2020D01*
Y-1680D01*
X-74270Y-1350D01*
X-74160Y-1060D01*
X-74000Y-810D01*
X-73810Y-640D01*
X-73600Y-600D01*
X-73390Y-640D01*
X-73200Y-810D01*
X-73040Y-1060D01*
X-72930Y-1350D01*
X-72880Y-1680D01*
Y-2020D01*
X-72930Y-2350D01*
X-73040Y-2640D01*
X-73200Y-2890D01*
X-73390Y-3060D01*
X-73600Y-3100D01*
G01X-78000Y19800D02*
Y17300D01*
G01X-78610Y19800D02*
X-77390D01*
G01X-75210Y19590D02*
X-75370Y19720D01*
X-75560Y19800D01*
X-75770D01*
X-76010Y19670D01*
X-76200Y19470D01*
X-76330Y19220D01*
X-76440Y18800D01*
X-76470Y18420D01*
X-76410Y18050D01*
X-76330Y17800D01*
X-76170Y17550D01*
X-75990Y17380D01*
X-75800Y17300D01*
X-75610D01*
X-75430Y17380D01*
X-75270Y17510D01*
X-75130Y17670D01*
G01X-74190Y17300D02*
Y19800D01*
G01X-73170D02*
X-74190Y18260D01*
G01X-73010Y17300D02*
X-73730Y18970D01*
G01X-66830Y24900D02*
X-66700Y24650D01*
X-66540Y24480D01*
X-66350Y24400D01*
X-66140Y24480D01*
X-65980Y24650D01*
X-65820Y24900D01*
X-65770Y25230D01*
Y26900D01*
G01X-64690Y24900D02*
X-64530Y24610D01*
X-64310Y24440D01*
X-64070Y24400D01*
X-63860Y24440D01*
X-63650Y24650D01*
X-63510Y24900D01*
X-63490Y25150D01*
X-63540Y25440D01*
X-63730Y25650D01*
X-63910Y25730D01*
X-64150D01*
G01X-63910D02*
X-63750Y25860D01*
X-63620Y26070D01*
X-63570Y26320D01*
X-63620Y26570D01*
X-63750Y26770D01*
X-63990Y26900D01*
X-64230Y26860D01*
X-64470Y26690D01*
G01X-62130Y-40100D02*
X-62000Y-40350D01*
X-61840Y-40520D01*
X-61650Y-40600D01*
X-61440Y-40520D01*
X-61280Y-40350D01*
X-61120Y-40100D01*
X-61070Y-39770D01*
Y-38100D01*
G01X-59080Y-40600D02*
Y-38100D01*
X-60070Y-39890D01*
X-58730D01*
G01X-54100Y-26530D02*
X-52580D01*
G01X-53400Y-25450D02*
Y-27620D01*
G01X-42130Y18800D02*
Y21300D01*
X-41470D01*
X-41250Y21170D01*
X-41120Y21010D01*
X-41070Y20670D01*
X-41120Y20340D01*
X-41280Y20130D01*
X-41470Y20010D01*
X-42130D01*
G01X-41470D02*
X-41070Y18800D01*
G01X-39450D02*
X-39400Y19340D01*
X-39320Y19800D01*
X-39210Y20220D01*
X-39080Y20670D01*
X-38870Y21300D01*
X-39930D01*
G01X-57100Y16900D02*
Y23100D01*
X-42900D01*
Y16900D01*
X-57100D01*
G01X-50500Y39500D02*
G03I-7000J0D01*
G01X-59230Y49500D02*
X-59100Y49250D01*
X-58940Y49080D01*
X-58750Y49000D01*
X-58540Y49080D01*
X-58380Y49250D01*
X-58220Y49500D01*
X-58170Y49830D01*
Y51500D01*
G01X-57010Y50040D02*
X-56820Y50330D01*
X-56660Y50500D01*
X-56450Y50580D01*
X-56260Y50500D01*
X-56130Y50330D01*
X-56020Y50080D01*
X-55990Y49790D01*
X-56020Y49540D01*
X-56130Y49290D01*
X-56290Y49080D01*
X-56470Y49000D01*
X-56690Y49080D01*
X-56870Y49330D01*
X-56980Y49710D01*
X-57010Y50120D01*
X-56950Y50670D01*
X-56870Y50960D01*
X-56740Y51250D01*
X-56550Y51460D01*
X-56370Y51500D01*
X-56180Y51420D01*
X-56050Y51210D01*
G01X-37690Y17900D02*
Y16110D01*
X-37580Y15730D01*
X-37370Y15480D01*
X-37100Y15400D01*
X-36830Y15480D01*
X-36620Y15730D01*
X-36510Y16110D01*
Y17900D01*
G01X-34900Y15400D02*
Y17900D01*
X-35220Y17400D01*
G01Y15400D02*
X-34580D01*
G01X-38260Y67330D02*
X-38050Y67120D01*
X-37810Y67000D01*
X-37590D01*
X-37380Y67120D01*
X-37220Y67330D01*
X-37140Y67630D01*
X-37190Y67920D01*
X-37330Y68170D01*
X-37570Y68330D01*
X-37890Y68420D01*
X-38070Y68580D01*
X-38150Y68870D01*
X-38100Y69170D01*
X-37970Y69370D01*
X-37780Y69500D01*
X-37590D01*
X-37410Y69420D01*
X-37250Y69210D01*
G01X-35820Y69500D02*
X-35180D01*
G01X-35500D02*
Y67000D01*
G01X-35820D02*
X-35180D01*
G01X-33140Y68250D02*
X-32610D01*
Y67500D01*
X-32770Y67250D01*
X-32950Y67080D01*
X-33220Y67000D01*
X-33490Y67080D01*
X-33670Y67250D01*
X-33830Y67500D01*
X-33940Y67790D01*
X-33990Y68120D01*
Y68420D01*
X-33940Y68670D01*
X-33830Y68960D01*
X-33670Y69210D01*
X-33510Y69370D01*
X-33300Y69500D01*
X-33110D01*
X-32900Y69420D01*
X-32740Y69250D01*
G01X-31420Y69500D02*
X-30780D01*
G01X-31100D02*
Y67000D01*
G01X-31420D02*
X-30780D01*
G01X-29510D02*
Y69500D01*
X-28290Y67000D01*
Y69500D01*
G01X-25700Y67220D02*
Y69220D01*
X-25940Y68820D01*
G01Y67220D02*
X-25460D01*
G01X11270Y-76000D02*
X11400Y-76250D01*
X11560Y-76420D01*
X11750Y-76500D01*
X11960Y-76420D01*
X12120Y-76250D01*
X12280Y-76000D01*
X12330Y-75670D01*
Y-74000D01*
G01X13950Y-76500D02*
X14000Y-75960D01*
X14080Y-75500D01*
X14190Y-75080D01*
X14320Y-74630D01*
X14530Y-74000D01*
X13470D01*
G01X20500Y-84500D02*
G03I-7000J0D01*
G01X-4500Y20300D02*
Y26300D01*
X9300D01*
Y20300D01*
X-4500D01*
G01X14500Y62070D02*
X14750Y62200D01*
X14920Y62360D01*
X15000Y62550D01*
X14920Y62760D01*
X14750Y62920D01*
X14500Y63080D01*
X14170Y63130D01*
X12500D01*
G01X14630Y64210D02*
X14830Y64370D01*
X14960Y64560D01*
X15000Y64800D01*
X14920Y65040D01*
X14750Y65230D01*
X14460Y65360D01*
X14130Y65390D01*
X13790Y65330D01*
X13580Y65200D01*
X13420Y65010D01*
X13380Y64830D01*
X13420Y64640D01*
X13580Y64400D01*
X12500Y64480D01*
Y65200D01*
G01X-6530Y62910D02*
Y60680D01*
X-6400Y60210D01*
X-6130Y59900D01*
X-5800Y59800D01*
X-5460Y59900D01*
X-5190Y60210D01*
X-5060Y60680D01*
Y62910D01*
G01X-3830Y62390D02*
X-3630Y62700D01*
X-3400Y62860D01*
X-3130Y62910D01*
X-2790Y62810D01*
X-2560Y62550D01*
X-2490Y62240D01*
X-2520Y61930D01*
X-2660Y61670D01*
X-3330Y61150D01*
X-3630Y60780D01*
X-3830Y60270D01*
X-3900Y59800D01*
X-2490D01*
G01X-3150Y69670D02*
X-3030Y69870D01*
X-2890Y69970D01*
X-2730Y70000D01*
X-2530Y69930D01*
X-2390Y69770D01*
X-2350Y69570D01*
X-2370Y69370D01*
X-2450Y69200D01*
X-2850Y68870D01*
X-3030Y68630D01*
X-3150Y68300D01*
X-3190Y68000D01*
X-2350D01*
G01X31690Y24790D02*
X31530Y24920D01*
X31340Y25000D01*
X31130D01*
X30890Y24870D01*
X30700Y24670D01*
X30570Y24420D01*
X30460Y24000D01*
X30430Y23620D01*
X30490Y23250D01*
X30570Y23000D01*
X30730Y22750D01*
X30910Y22580D01*
X31100Y22500D01*
X31290D01*
X31470Y22580D01*
X31630Y22710D01*
X31770Y22870D01*
G01X32710Y23000D02*
X32870Y22710D01*
X33090Y22540D01*
X33330Y22500D01*
X33540Y22540D01*
X33750Y22750D01*
X33890Y23000D01*
X33910Y23250D01*
X33860Y23540D01*
X33670Y23750D01*
X33490Y23830D01*
X33250D01*
G01X33490D02*
X33650Y23960D01*
X33780Y24170D01*
X33830Y24420D01*
X33780Y24670D01*
X33650Y24870D01*
X33410Y25000D01*
X33170Y24960D01*
X32930Y24790D01*
G01X15500Y20400D02*
Y26400D01*
X29300D01*
Y20400D01*
X15500D01*
G01X32900Y57300D02*
X16100D01*
Y70000D01*
X32900D01*
Y57300D01*
G01X21930Y70500D02*
Y72020D01*
G01X20850Y71200D02*
X23020D01*
G01X42600Y-47970D02*
X41080D01*
G01X41900Y-49050D02*
Y-46880D01*
G01X56200Y-37100D02*
Y-53900D01*
X43500D01*
Y-37100D01*
X56200D01*
G01X47770Y-36000D02*
X47900Y-36250D01*
X48060Y-36420D01*
X48250Y-36500D01*
X48460Y-36420D01*
X48620Y-36250D01*
X48780Y-36000D01*
X48830Y-35670D01*
Y-34000D01*
G01X50500Y-36500D02*
Y-34000D01*
X50180Y-34500D01*
G01Y-36500D02*
X50820D01*
G01X61170Y-37900D02*
X61300Y-38150D01*
X61460Y-38320D01*
X61650Y-38400D01*
X61860Y-38320D01*
X62020Y-38150D01*
X62180Y-37900D01*
X62230Y-37570D01*
Y-35900D01*
G01X63390Y-36320D02*
X63550Y-36070D01*
X63740Y-35940D01*
X63950Y-35900D01*
X64220Y-35980D01*
X64410Y-36190D01*
X64460Y-36440D01*
X64430Y-36690D01*
X64330Y-36900D01*
X63790Y-37320D01*
X63550Y-37610D01*
X63390Y-38030D01*
X63340Y-38400D01*
X64460D01*
G01X69200Y-13100D02*
Y-34900D01*
X56400D01*
Y-13100D01*
X69200D01*
G01X47100Y22400D02*
X70900D01*
Y4600D01*
X64900Y-1400D01*
X53500D01*
X47100Y5000D01*
Y22400D01*
G01X66390Y34190D02*
X66230Y34320D01*
X66040Y34400D01*
X65830D01*
X65590Y34270D01*
X65400Y34070D01*
X65270Y33820D01*
X65160Y33400D01*
X65130Y33020D01*
X65190Y32650D01*
X65270Y32400D01*
X65430Y32150D01*
X65610Y31980D01*
X65800Y31900D01*
X65990D01*
X66170Y31980D01*
X66330Y32110D01*
X66470Y32270D01*
G01X68000Y31900D02*
Y34400D01*
X67680Y33900D01*
G01Y31900D02*
X68320D01*
G01X46770Y58000D02*
X46900Y57750D01*
X47060Y57580D01*
X47250Y57500D01*
X47460Y57580D01*
X47620Y57750D01*
X47780Y58000D01*
X47830Y58330D01*
Y60000D01*
G01X49500Y57500D02*
X49690Y57540D01*
X49900Y57670D01*
X50030Y57870D01*
X50090Y58170D01*
X50030Y58460D01*
X49870Y58710D01*
X49630Y58830D01*
X49370D01*
X49210Y58920D01*
X49070Y59120D01*
X49020Y59420D01*
X49100Y59710D01*
X49290Y59920D01*
X49500Y60000D01*
X49710Y59920D01*
X49900Y59710D01*
X49980Y59420D01*
X49930Y59120D01*
X49790Y58920D01*
X49630Y58830D01*
X49370D01*
X49130Y58710D01*
X48970Y58460D01*
X48910Y58170D01*
X48970Y57870D01*
X49100Y57670D01*
X49310Y57540D01*
X49500Y57500D01*
G01X55500Y48000D02*
G03I-7000J0D01*
G01X71100Y-14900D02*
Y-17400D01*
G01X70490Y-14900D02*
X71710D01*
G01X72740Y-17400D02*
X73860Y-14900D01*
G01X72740D02*
X73860Y-17400D01*
G01X70670Y-23100D02*
Y-20600D01*
X71330D01*
X71550Y-20730D01*
X71680Y-20890D01*
X71730Y-21230D01*
X71680Y-21560D01*
X71520Y-21770D01*
X71330Y-21890D01*
X70670D01*
G01X71330D02*
X71730Y-23100D01*
G01X72840D02*
X73960Y-20600D01*
G01X72840D02*
X73960Y-23100D01*
G01X71960Y-28050D02*
X72490D01*
Y-28800D01*
X72330Y-29050D01*
X72150Y-29220D01*
X71880Y-29300D01*
X71610Y-29220D01*
X71430Y-29050D01*
X71270Y-28800D01*
X71160Y-28510D01*
X71110Y-28180D01*
Y-27880D01*
X71160Y-27630D01*
X71270Y-27340D01*
X71430Y-27090D01*
X71590Y-26930D01*
X71800Y-26800D01*
X71990D01*
X72200Y-26880D01*
X72360Y-27050D01*
G01X73390Y-29300D02*
Y-26800D01*
X74610Y-29300D01*
Y-26800D01*
G01X75610Y-29300D02*
Y-26800D01*
X76150D01*
X76360Y-26930D01*
X76520Y-27090D01*
X76650Y-27340D01*
X76760Y-27630D01*
X76790Y-28050D01*
X76760Y-28470D01*
X76650Y-28760D01*
X76520Y-29010D01*
X76360Y-29180D01*
X76150Y-29300D01*
X75610D01*
G54D11*
G01X-38920Y51320D02*
X-39270Y51550D01*
X-39670Y51700D01*
X-40140D01*
X-40670Y51470D01*
X-41070Y51100D01*
X-41370Y50650D01*
X-41600Y49900D01*
X-41660Y49220D01*
X-41540Y48550D01*
X-41370Y48100D01*
X-41020Y47650D01*
X-40610Y47350D01*
X-40200Y47200D01*
X-39790D01*
X-39380Y47350D01*
X-39030Y47570D01*
X-38740Y47870D01*
G01X-34700Y47200D02*
Y51700D01*
X-36860Y48480D01*
X-33940D01*
G54D12*
G01X-7500Y65050D02*
X-20100D01*
G01Y71350D02*
X-7500D01*
G54D13*
G01X36400Y-55400D02*
X-44400D01*
Y13800D01*
X36400D01*
Y-55400D01*
M02*
