G04 ================== begin FILE IDENTIFICATION RECORD ==================*
G04 Layout Name:  D:/thanh/baocao/layout/main2.brd*
G04 Film Name:    ar_TOP*
G04 File Format:  Gerber RS274X*
G04 File Origin:  Cadence Allegro 16.6-P004*
G04 Origin Date:  Wed Apr 05 18:57:24 2017*
G04 *
G04 Layer:  ETCH/TOP*
G04 Layer:  PIN/TOP*
G04 Layer:  VIA CLASS/TOP*
G04 *
G04 Offset:    (0.0 0.0)*
G04 Mirror:    No*
G04 Mode:      Positive*
G04 Rotation:  0*
G04 FullContactRelief:  No*
G04 UndefLineWidth:     6.0*
G04 ================== end FILE IDENTIFICATION RECORD ====================*
%FSLAX25Y25*MOIN*%
%IR0*IPPOS*OFA0.00000B0.00000*MIA0B0*SFA1.00000B1.00000*%
%ADD13C,.256*%
%ADD25R,.028X.158*%
%ADD22R,.02X.026*%
%ADD24R,.05X.05*%
%ADD10C,.031*%
%ADD18R,.052X.052*%
%ADD11C,.07*%
%ADD15R,.035X.062*%
%ADD14R,.062X.035*%
%ADD21R,.0165X.026*%
%ADD20R,.026X.0228*%
%ADD17C,.039*%
%ADD12R,.07X.07*%
%ADD16R,.039X.039*%
%ADD23R,.0394X.0394*%
%ADD19R,.079X.079*%
%ADD26C,.02*%
%ADD27C,.012*%
%ADD28C,.035*%
%ADD29C,.018*%
%ADD30R,.0752X.1022*%
%ADD31C,.0794*%
G75*
%LPD*%
G75*
G36*
G01X-31540Y72680D02*
G02X-31000Y72310I141J-373D01*
G01Y52000D01*
X-30240D01*
Y35150D01*
G03X-30270Y34700I3739J-475D01*
G01Y10900D01*
G03X-30260Y10650I3769J26D01*
G01Y5790D01*
X-22740D01*
Y10650D01*
G03X-22730Y10900I-3759J276D01*
G01Y34180D01*
X-22720D01*
Y52000D01*
X-7500D01*
Y73100D01*
X-7530D01*
Y74810D01*
X26090D01*
G02X-31540Y72680I-25725J-84676D01*
G37*
%LPC*%
G75*
G36*
G01X29120Y20210D02*
X39780D01*
X44640Y15350D01*
X44720Y15340D01*
G02X40960Y11580I-200J-3560D01*
G01X40950Y11660D01*
X37620Y14990D01*
X32270D01*
Y7970D01*
X38620D01*
Y-2790D01*
X42350D01*
X55550Y-15990D01*
X58410D01*
G02X64080Y-21500I2586J-3011D01*
G02X58410Y-27010I-3084J-2499D01*
G01X51850D01*
X39300Y-14460D01*
G03X38620Y-14740I-281J-283D01*
G01Y-49570D01*
X28380D01*
Y5780D01*
X9730D01*
Y15530D01*
G02X9790Y20340I2669J2372D01*
G01Y25960D01*
G02X14820Y31030I2610J2440D01*
G03X15490Y31320I271J292D01*
G01Y37490D01*
X10150D01*
X1510Y28850D01*
Y27810D01*
X3010D01*
Y20310D01*
X3350D01*
X6540Y17120D01*
Y16020D01*
X7270D01*
Y5780D01*
X-20270D01*
Y16020D01*
X-17820D01*
G03X-17440Y16530I-2J398D01*
G02X-13450Y21030I3438J971D01*
G03X-12990Y21340I69J394D01*
G02X-6720Y22840I3492J-741D01*
G03X-6010Y23090I310J252D01*
G01Y27810D01*
X-4510D01*
Y31350D01*
X7650Y43510D01*
X18750D01*
X18990Y43750D01*
Y61540D01*
X18040D01*
Y69460D01*
X25960D01*
Y61540D01*
X25010D01*
Y43510D01*
X34350D01*
X52900Y24960D01*
X55590D01*
Y31860D01*
X62410D01*
Y12040D01*
X55510D01*
Y-1080D01*
G02X49490I-3010J-1920D01*
G01Y19850D01*
X31850Y37490D01*
X21510D01*
Y27910D01*
X23010D01*
Y18890D01*
X21510D01*
Y16020D01*
X25890D01*
Y16980D01*
X29120Y20210D01*
G37*
G36*
G01X-11610Y-70060D02*
Y-67580D01*
X-19110Y-60080D01*
Y-59950D01*
X-19360Y-59850D01*
X-21200Y-61700D01*
G03X-20860Y-62370I283J-278D01*
G02X-20100Y-69460I560J-3526D01*
G01X-20180Y-69470D01*
X-23540Y-72830D01*
X-42370D01*
X-42430Y-72770D01*
X-42540D01*
X-43470Y-71840D01*
X-43550Y-71830D01*
G02X-43850Y-64740I200J3560D01*
G03X-43620Y-64060I-56J398D01*
G01X-43740Y-63940D01*
X-43750D01*
X-67110Y-40580D01*
Y-36580D01*
X-70110Y-33580D01*
Y-17020D01*
X-69730Y-16640D01*
G03X-69740Y-16060I-281J285D01*
G02X-68960Y-7340I3740J4060D01*
G03Y-6660I-209J340D01*
G02Y2660I2960J4660D01*
G03Y3340I-209J340D01*
G02X-69990Y11810I2961J4658D01*
G03X-70280Y12490I-288J279D01*
G01X-71510D01*
Y23510D01*
X-60490D01*
Y23010D01*
X-58610D01*
Y24610D01*
X-49390D01*
Y15390D01*
X-58610D01*
Y15650D01*
G03X-58950Y15790I-200J-2D01*
G01X-59750Y14990D01*
X-60490D01*
Y12490D01*
X-61720D01*
G03X-62010Y11810I-2J-401D01*
G02X-61140Y10610I-3992J-3809D01*
G01X-59920D01*
X-57880Y8570D01*
X-57800Y8560D01*
G02X-61410Y3950I-199J-3562D01*
G03X-62080Y4120I-385J-114D01*
G02X-63040Y3340I-3938J3866D01*
G03Y2660I209J-340D01*
G02Y-6660I-2960J-4660D01*
G03Y-7340I209J-340D01*
G02X-63390Y-16860I-2961J-4658D01*
G01Y-17680D01*
X-64890Y-19180D01*
Y-31420D01*
X-64130Y-32170D01*
G03X-63450Y-31860I282J282D01*
G02X-63460Y-31250I3950J370D01*
G01Y-22540D01*
X-62110D01*
Y-17420D01*
X-54080Y-9390D01*
X-51440D01*
G02X-50620Y-8820I2428J-2618D01*
G03X-50510Y-8180I-176J360D01*
G01X-51510Y-7180D01*
Y-5920D01*
X-51540Y-5870D01*
G02X-47170Y-690I3041J1868D01*
G03X-46620Y-320I149J372D01*
G01Y2970D01*
X-36380D01*
Y-47380D01*
X27270D01*
Y-57620D01*
X-13890D01*
Y-57920D01*
X-6390Y-65420D01*
Y-70060D01*
G02X-11610I-2610J-2440D01*
G37*
G54D30*
X-36500Y10900D03*
G54D31*
X48000Y-43000D03*
%LPD*%
G75*
G36*
G01X-51420Y-40370D02*
X-48380Y-43410D01*
X-46620D01*
Y-49570D01*
X-40270D01*
Y-57620D01*
X-25480D01*
G02X-25190Y-58300I4J-400D01*
G01X-25610Y-58720D01*
X-25620D01*
X-26120Y-59220D01*
X-26130D01*
X-27640Y-60730D01*
X-27650D01*
X-28970Y-62050D01*
X-28980D01*
X-30130Y-63200D01*
X-30140D01*
X-30610Y-63670D01*
X-30630D01*
X-30780Y-63820D01*
X-36430D01*
X-36570Y-63680D01*
X-36590D01*
X-37060Y-63210D01*
X-37070D01*
X-38220Y-62060D01*
X-38230D01*
X-39550Y-60740D01*
X-39560D01*
X-41580Y-58720D01*
X-41590D01*
X-61890Y-38420D01*
Y-35390D01*
G02X-61310Y-35030I401J1D01*
G03X-55540Y-31230I1810J3532D01*
G01Y-22540D01*
X-56890D01*
Y-19580D01*
X-56440Y-19130D01*
G02X-55760Y-19380I282J-284D01*
G03X-52780Y-22620I3558J282D01*
G02X-52460Y-23120I-66J-395D01*
G03X-49200Y-27560I3459J-877D01*
G01X-49120Y-27570D01*
X-48280Y-28410D01*
X-46620D01*
Y-28910D01*
G02X-47140Y-29290I-399J1D01*
G03X-51750Y-33070I-1059J-3409D01*
G02X-51920Y-33280I-198J-13D01*
G03X-51500Y-40360I620J-3516D01*
G01X-51420Y-40370D01*
G37*
G54D10*
X-78430Y-41240D03*
X-73430D03*
X-71900Y-49420D03*
X-66910Y-49280D03*
X-71910Y-54280D03*
X-66910D03*
X-82560Y-15710D03*
X-77560D03*
X-82220Y-24750D03*
X-77230Y-24610D03*
X-82230Y-29610D03*
X-77230D03*
X-78420Y-36380D03*
X-73430Y-36240D03*
X-82760Y13820D03*
X-77770Y13960D03*
X-82770Y8960D03*
X-77770D03*
X-82870Y1970D03*
X-77880Y2110D03*
X-82880Y-2890D03*
X-77880D03*
X-82550Y-10850D03*
X-77560Y-10710D03*
X-43350Y-68270D03*
X-63330Y-64810D03*
X-58330D03*
X-57090Y-72460D03*
X-52030D03*
Y-77460D03*
X-47030D03*
X-42090Y-82830D03*
X-41530Y-77860D03*
X-63320Y-59950D03*
X-58330Y-59810D03*
X-49000Y-24000D03*
X-52200Y-19100D03*
X-51300Y-36800D03*
X-49000Y-12000D03*
X-48200Y-32700D03*
X-58000Y5000D03*
X-48500Y-4000D03*
X-43050Y36070D03*
X-40380Y19360D03*
X-40100Y25400D03*
X-40600Y29100D03*
X-41600Y32600D03*
X-38100Y33800D03*
X-39440Y37920D03*
X-53100Y57900D03*
X-48300Y57400D03*
X-48600Y61500D03*
X-40500Y66300D03*
X-43220Y43580D03*
X-39310Y42850D03*
X-43910Y52450D03*
X-39110D03*
X-39240Y47520D03*
X-44040D03*
X-43810Y62150D03*
X-39010D03*
X-39140Y57220D03*
X-43940D03*
X-20300Y-65900D03*
X-36600Y-83120D03*
X-36530Y-77860D03*
X-36340Y-59670D03*
X-17500Y-44500D03*
X-22500D03*
X-22570Y-39640D03*
X-17570D03*
X-27500Y-30000D03*
X-17500Y-20500D03*
X-27500Y-35500D03*
X-33610Y-28130D03*
X-17570Y-25640D03*
X-22570D03*
Y-30140D03*
X-17570D03*
X-23000Y-20500D03*
X-21820Y-14700D03*
X-16820D03*
X-17570Y-35140D03*
X-22570D03*
X-17760Y3310D03*
X-22670Y3290D03*
X-21820Y-10200D03*
X-16820D03*
X-34810Y30D03*
X-34740Y4180D03*
X-36700Y30100D03*
X-35500Y24800D03*
X-36540Y20850D03*
X-33600Y37300D03*
X-33300Y33200D03*
X-32900Y29000D03*
X-31990Y24730D03*
X-32650Y18850D03*
X-20400Y41700D03*
X-20500Y37000D03*
Y33000D03*
X-20700Y28800D03*
X-20690Y24290D03*
Y19090D03*
X-17700Y26500D03*
X-11400Y36310D03*
X-16330Y31380D03*
X-11530D03*
X-11230Y40580D03*
X-16030D03*
X-16200Y36310D03*
X-17910Y21420D03*
X-14310Y24920D03*
X-14000Y17500D03*
X-35500Y66800D03*
X-34500Y62600D03*
Y58600D03*
X-34400Y54700D03*
X-34700Y50600D03*
X-34900Y46400D03*
X-34200Y42500D03*
X-12100Y49100D03*
X-15800Y49400D03*
X-19900Y49300D03*
X-20200Y46000D03*
X-15900Y45510D03*
X-11100D03*
X-9000Y-72500D03*
X11670Y-64460D03*
Y-59460D03*
X15510Y-45560D03*
X10460Y-45500D03*
X-4000Y-32500D03*
Y-20500D03*
X8000D03*
Y-32500D03*
X-4000Y-8500D03*
X-1500Y17300D03*
X-9500Y20600D03*
X12400Y28400D03*
Y17900D03*
X-1200Y51100D03*
X-1300Y55100D03*
X-800Y59000D03*
X13090Y51750D03*
X12960Y46820D03*
X12890Y62250D03*
X12760Y57320D03*
X12360Y67520D03*
X2690Y53150D03*
X7490D03*
X7360Y48220D03*
X2560D03*
X2990Y62250D03*
X7790D03*
X7660Y57320D03*
X2860D03*
X7360Y66920D03*
X2560D03*
X-2600Y68200D03*
X-800Y63300D03*
X-5100Y61900D03*
X-5000Y57800D03*
X-4900Y53400D03*
X-4100Y48900D03*
X-8200Y49200D03*
X12490Y72450D03*
X2690Y71850D03*
X7490D03*
X-2100Y72100D03*
X42370Y-69360D03*
X37370D03*
Y-74360D03*
X42370D03*
X31970Y-69660D03*
X26970D03*
Y-74660D03*
X31970D03*
X32070Y-64460D03*
X37070D03*
X21770D03*
X26770D03*
X16670D03*
X37570Y-79960D03*
X32570D03*
Y-84960D03*
X37570D03*
X37070Y-59460D03*
X32070D03*
X26770D03*
X21770D03*
X16670D03*
X20680Y-43200D03*
X25680D03*
X20680Y-38200D03*
X25680D03*
X20680Y-28700D03*
X25680D03*
X20680Y-23700D03*
X25680D03*
X20680Y-19200D03*
Y-14200D03*
X25680D03*
X20680Y-33700D03*
X25680D03*
Y-19200D03*
X25500Y-9500D03*
X20500D03*
X42770Y-64260D03*
X47770D03*
X53370Y-69460D03*
X48370D03*
Y-74460D03*
X53370D03*
X61850Y-44460D03*
X66840Y-44320D03*
X61840Y-49320D03*
X66840D03*
X67970Y-58660D03*
X62980Y-58800D03*
X62970Y-63660D03*
X67970D03*
X58270Y-59160D03*
X53270D03*
Y-64160D03*
X58270D03*
X47770Y-59260D03*
X42770D03*
X52500Y-3000D03*
X44520Y11780D03*
X64340Y41970D03*
X64330Y37110D03*
X74110Y-38740D03*
X79110D03*
X76830Y-11360D03*
X81830D03*
X74120Y-33880D03*
X79110Y-33740D03*
X77160Y-19860D03*
X82150Y-19720D03*
X77150Y-24720D03*
X82150D03*
X76500Y13100D03*
X81500D03*
X76620Y5990D03*
X81610Y6130D03*
X76610Y1130D03*
X81610D03*
X76840Y-6500D03*
X81830Y-6360D03*
X69330Y42110D03*
Y37110D03*
X76510Y17960D03*
X81500Y18100D03*
G54D20*
X-26500Y37470D03*
Y41330D03*
G54D11*
X-66000Y-12000D03*
Y-2000D03*
Y8000D03*
G54D12*
Y18000D03*
G54D21*
X-29710Y49300D03*
G54D22*
X-26490D03*
G54D13*
X-57500Y39500D03*
X13500Y-84500D03*
X48500Y48000D03*
G54D23*
X-20100Y68200D03*
X-7500D03*
G54D14*
X-41500Y-40800D03*
Y-45800D03*
Y-15800D03*
Y-20800D03*
Y-25800D03*
Y-30800D03*
Y-35800D03*
Y4200D03*
Y-800D03*
Y-5800D03*
Y-10800D03*
X33500Y-45800D03*
Y-40800D03*
Y-35800D03*
Y-30800D03*
Y-25800D03*
Y-20800D03*
Y-15800D03*
Y-10800D03*
Y-5800D03*
Y-800D03*
Y4200D03*
G54D15*
X-41500Y-52500D03*
Y10900D03*
X-36500Y-52500D03*
X-31500D03*
X-26500D03*
X-21500D03*
X-16500D03*
X-11500D03*
Y10900D03*
X-16500D03*
X-21500D03*
X-26500D03*
X-31500D03*
X-36500D03*
X-6500Y-52500D03*
X-1500D03*
X3500D03*
X8500D03*
X13500D03*
Y10900D03*
X8500D03*
X3500D03*
X-1500D03*
X-6500D03*
X18500Y-52500D03*
X23500D03*
X28500D03*
X33500D03*
Y10900D03*
X28500D03*
X23500D03*
X18500D03*
G54D24*
X6300Y23300D03*
X-1500D03*
X26300Y23400D03*
X18500D03*
G54D16*
X-59500Y-26500D03*
X22000Y65500D03*
X48000Y-48000D03*
X61000Y-29000D03*
G54D25*
X59000Y-950D03*
Y21950D03*
G54D26*
G01X-54000Y20000D02*
X-59000D01*
X-61000Y18000D01*
X-66000D01*
G01X3500Y10900D02*
X3530Y10930D01*
Y15870D01*
X2100Y17300D01*
X-1500D01*
G01Y10900D02*
Y17300D01*
G01D02*
Y23300D01*
G01X20000Y40500D02*
X8900D01*
X-1500Y30100D01*
Y23300D01*
G01X18500Y10900D02*
Y23400D01*
G01X61000Y-19000D02*
X54300D01*
X41100Y-5800D01*
X33500D01*
G01X61000Y-24000D02*
X53100D01*
X39900Y-10800D01*
X33500D01*
G01X20000Y40500D02*
X33100D01*
X51650Y21950D01*
G01X22000Y65500D02*
Y42500D01*
X20000Y40500D01*
G01X18500Y23400D02*
Y39000D01*
X20000Y40500D01*
G01X52500Y-3000D02*
Y21100D01*
X51650Y21950D01*
G01D02*
X59000D01*
G54D17*
G01X-26490Y68200D02*
X-20100D01*
G01X-33930D02*
X-26490D01*
G01X-33940Y68210D02*
X-33930Y68200D01*
G01X-7500D02*
X-2600D01*
X-59500Y-31500D03*
X27000Y65500D03*
X48000Y-43000D03*
X61000Y-19000D03*
Y-24000D03*
G54D27*
G01X-66000Y-12000D02*
Y-16600D01*
X-67500Y-18100D01*
Y-32500D01*
X-64500Y-35500D01*
Y-39500D01*
X-42670Y-61330D01*
X-42660D01*
X-40640Y-63350D01*
X-40630D01*
X-39310Y-64670D01*
X-39300D01*
X-38150Y-65820D01*
X-38140D01*
X-37670Y-66290D01*
X-37650D01*
X-37510Y-66430D01*
X-29700D01*
X-29550Y-66280D01*
X-29530D01*
X-29060Y-65810D01*
X-29050D01*
X-27900Y-64660D01*
X-27890D01*
X-26570Y-63340D01*
X-26560D01*
X-25050Y-61830D01*
X-25040D01*
X-24540Y-61330D01*
X-24530D01*
X-21500Y-58300D01*
Y-52500D01*
G01X-43350Y-68270D02*
X-41460Y-70160D01*
X-41350D01*
X-41290Y-70220D01*
X-24620D01*
X-20300Y-65900D01*
G01X-51300Y-36800D02*
X-47300Y-40800D01*
X-41500D01*
G01Y-25800D02*
X-47200D01*
X-49000Y-24000D01*
G01X-41500Y-20800D02*
X-50500D01*
X-52200Y-19100D01*
G01X-59500Y-26500D02*
Y-18500D01*
X-53000Y-12000D01*
X-49000D01*
G01X-41500Y-15800D02*
X-45200D01*
X-49000Y-12000D01*
G01X-41500Y-35800D02*
X-45100D01*
X-48200Y-32700D01*
G01X-66000Y8000D02*
X-61000D01*
X-58000Y5000D01*
G01X-48500Y-4000D02*
X-48900Y-4400D01*
Y-6100D01*
X-44200Y-10800D01*
X-41500D01*
G01X-16500Y-52500D02*
Y-59000D01*
X-9000Y-66500D01*
Y-72500D01*
G01X-21700Y10700D02*
X-21500Y10900D01*
G01X-31700Y11100D02*
X-31500Y10900D01*
G01X-11500D02*
Y15000D01*
X-14000Y17500D01*
G01X-6500Y10900D02*
Y17600D01*
X-9500Y20600D01*
G01X8500Y10900D02*
Y17500D01*
X6300Y19700D01*
Y23300D01*
G01X12400Y28400D02*
Y17900D01*
G01X28260Y-52500D02*
X28500D01*
G01X44520Y11780D02*
X38700Y17600D01*
X30200D01*
X28500Y15900D01*
Y10900D01*
G54D18*
X-46000Y20000D03*
X-54000D03*
G54D28*
G01X-26500Y10900D02*
Y34700D01*
G01X-26490Y49300D02*
Y68200D01*
G01Y49300D02*
Y44110D01*
X-26500Y44100D01*
G54D19*
X-10000Y-38400D03*
Y-14600D03*
Y-26500D03*
X13800Y-38400D03*
X1900D03*
Y-14600D03*
X13800D03*
X1900Y-26500D03*
X13800D03*
G54D29*
G01X-26500Y37470D02*
Y34700D01*
G01Y44100D02*
Y41330D01*
G01X-29710Y49300D02*
X-31390D01*
M02*
